<?xml version="1.0" standalone="no"?>
<!DOCTYPE svg PUBLIC "-//W3C//DTD SVG 20010904//EN"
 "http://www.w3.org/TR/2001/REC-SVG-20010904/DTD/svg10.dtd">
<svg version="1.0" xmlns="http://www.w3.org/2000/svg"
 width="928.000000pt" height="928.000000pt" viewBox="0 0 928.000000 928.000000"
 preserveAspectRatio="xMidYMid meet">
<metadata>
Created by potrace 1.11, written by Peter Selinger 2001-2013
</metadata>
<g transform="translate(0.000000,928.000000) scale(0.100000,-0.100000)"
fill="#000000" stroke="none">
<path d="M4598 8714 c-2 -1 -50 -5 -108 -8 -58 -3 -114 -8 -126 -10 -11 -2
-47 -7 -79 -10 -33 -4 -100 -14 -150 -22 -116 -20 -116 -20 -210 -40 -104 -22
-98 -20 -115 -27 -8 -3 -26 -8 -40 -10 -14 -3 -43 -11 -65 -17 -22 -6 -47 -12
-55 -14 -87 -22 -318 -106 -470 -171 -167 -71 -487 -243 -555 -297 -5 -5 -41
-29 -80 -55 -38 -25 -104 -72 -146 -103 -74 -57 -90 -65 -139 -74 -14 -2 -51
-11 -82 -21 -32 -9 -61 -17 -65 -17 -5 -1 -51 -17 -103 -36 -52 -18 -99 -35
-105 -36 -5 -1 -24 -10 -41 -19 -17 -9 -34 -13 -38 -10 -3 4 -6 1 -6 -5 0 -7
-9 -12 -20 -12 -11 0 -20 -5 -20 -10 0 -6 -3 -9 -7 -8 -27 7 -246 -123 -356
-211 -86 -69 -141 -125 -201 -205 -37 -50 -89 -138 -91 -156 -1 -3 -6 -21 -12
-40 -7 -19 -14 -53 -18 -75 -9 -66 -12 -84 -41 -245 -3 -19 -8 -48 -10 -65 -3
-16 -7 -47 -10 -68 -6 -37 -34 -67 -62 -67 -7 0 -18 -5 -25 -10 -11 -9 -275
-143 -287 -145 -35 -8 -385 -194 -410 -218 -18 -17 -45 -57 -59 -87 -26 -55
-26 -56 -25 -310 0 -227 8 -471 19 -630 10 -142 16 -216 20 -244 2 -17 6 -65
10 -106 9 -106 16 -171 21 -200 2 -14 6 -45 10 -70 3 -25 8 -56 10 -70 3 -14
6 -39 7 -57 1 -17 5 -34 9 -38 4 -4 4 -13 2 -20 -3 -7 -1 -30 5 -51 5 -22 13
-61 16 -87 3 -27 9 -67 15 -90 5 -23 11 -55 14 -71 3 -16 10 -52 16 -80 6 -28
12 -60 14 -72 2 -11 11 -49 20 -85 8 -35 18 -75 20 -89 3 -14 10 -43 16 -65 6
-22 13 -49 15 -60 2 -11 4 -20 5 -20 1 0 3 -7 5 -15 2 -8 11 -40 20 -70 9 -30
17 -59 19 -65 51 -185 153 -460 254 -685 9 -19 16 -37 17 -40 2 -13 133 -263
166 -319 22 -34 39 -65 39 -68 0 -11 177 -269 245 -358 114 -149 158 -198 315
-355 293 -293 598 -498 1032 -694 62 -28 99 -43 111 -45 4 0 20 -7 35 -15 26
-13 202 -74 332 -114 71 -22 327 -88 375 -96 17 -3 41 -8 55 -11 14 -3 39 -8
55 -10 17 -3 41 -7 55 -10 14 -4 39 -8 55 -11 17 -3 44 -7 60 -10 77 -12 93
-15 130 -19 22 -2 56 -7 75 -9 19 -3 64 -8 100 -11 36 -3 97 -9 135 -13 96
-10 1232 -9 1325 1 79 8 113 12 195 23 28 4 64 8 80 9 17 1 48 6 70 10 22 5
49 10 60 11 11 1 20 3 20 4 0 1 14 4 30 6 17 3 64 12 105 20 41 9 86 18 100
20 14 3 33 7 42 10 9 3 27 7 40 10 39 9 53 12 53 14 0 1 10 3 23 6 66 12 275
76 384 117 36 14 69 23 72 20 3 -4 6 -1 6 5 0 7 3 11 8 10 8 -1 39 9 64 23 10
5 22 9 28 9 6 0 49 18 96 40 47 22 90 40 95 40 5 0 9 5 9 10 0 6 3 9 8 8 9 -3
145 63 153 75 3 5 9 8 13 8 6 -1 52 22 91 46 11 6 39 22 63 34 23 11 42 25 42
30 0 5 3 8 8 7 8 -3 155 93 160 105 2 4 8 7 13 7 5 0 31 17 57 37 27 21 63 49
82 63 104 77 210 172 349 311 93 92 117 118 210 227 59 70 207 267 222 294 7
13 15 25 18 28 12 9 130 204 130 214 -1 5 4 12 9 15 12 7 173 321 165 321 -3
0 -1 6 4 13 15 18 133 303 133 320 0 3 5 18 12 34 6 15 12 30 13 33 0 3 15 50
32 105 50 159 121 431 128 490 1 11 5 31 8 45 4 14 9 39 12 55 14 79 37 224
41 254 2 19 6 46 9 60 2 14 7 58 10 96 4 39 8 81 10 95 16 103 23 358 12 410
-26 117 -110 214 -247 286 l-73 39 -3 330 c-1 182 -5 346 -8 365 -2 19 -8 73
-11 120 -4 47 -9 94 -11 105 -3 11 -7 38 -10 60 -13 92 -56 296 -79 380 -14
50 -27 97 -30 105 -24 98 -150 384 -206 468 -16 24 -29 45 -29 48 0 9 -136
188 -176 233 -109 120 -183 185 -290 257 -84 56 -210 123 -231 124 -7 0 -13 5
-13 10 0 6 -3 9 -7 8 -5 0 -15 2 -23 5 -31 13 -176 60 -195 63 -11 2 -54 11
-95 19 -41 9 -92 16 -112 17 -21 0 -47 8 -58 18 -11 10 -36 28 -55 41 -19 13
-35 27 -35 32 0 4 -5 7 -12 7 -6 0 -21 8 -32 19 -34 30 -262 181 -275 181 -6
0 -11 4 -11 9 0 5 -19 18 -42 30 -24 11 -68 35 -98 52 -129 74 -348 177 -500
236 -119 45 -366 124 -430 137 -14 3 -43 10 -65 16 -22 5 -56 13 -75 16 -19 3
-38 8 -41 10 -4 2 -24 6 -44 10 -21 3 -47 8 -59 10 -26 5 -69 12 -116 18 -19
3 -46 7 -60 10 -14 2 -56 8 -95 12 -38 3 -86 8 -105 11 -39 5 -578 12 -582 7z
m492 -628 c52 -3 111 -8 130 -10 19 -3 58 -7 85 -10 28 -3 61 -7 75 -10 14 -3
42 -7 64 -10 21 -4 41 -8 45 -10 3 -3 25 -7 49 -11 86 -13 369 -92 447 -125
11 -4 49 -19 85 -33 36 -14 88 -35 115 -48 28 -12 52 -23 55 -24 3 0 25 -12
50 -25 25 -13 47 -25 50 -25 22 -4 247 -134 297 -171 17 -13 34 -24 37 -24 3
0 26 -15 50 -34 l44 -33 -31 -49 c-78 -126 -156 -293 -173 -374 -3 -13 -9 -29
-14 -35 -4 -5 -8 -14 -9 -20 0 -5 -3 -25 -6 -44 -5 -28 -10 -32 -28 -28 -12 3
-74 19 -137 36 -63 16 -133 32 -155 36 -23 3 -50 7 -60 9 -211 39 -578 48
-858 21 -37 -3 -77 -8 -89 -10 -11 -3 -46 -7 -77 -11 -31 -3 -87 -12 -124 -20
-38 -8 -72 -12 -77 -9 -5 3 -10 0 -12 -7 -6 -18 -27 0 -43 40 -14 32 -106 190
-126 217 -188 241 -365 394 -584 504 -56 28 -104 51 -108 51 -4 0 -26 9 -50
19 -36 16 -96 38 -132 48 -46 12 -101 24 -133 29 -66 10 -67 20 -5 38 32 10
76 24 98 32 46 15 148 43 185 49 14 2 35 7 48 10 45 10 59 13 154 29 53 9 119
19 145 22 26 2 64 7 83 9 19 3 80 8 135 11 55 3 101 6 102 7 3 4 314 -1 403
-7z m-1840 -767 c19 -1 165 -19 205 -25 53 -8 219 -53 258 -69 20 -8 38 -15
39 -14 7 3 129 -57 183 -89 66 -39 147 -102 183 -141 13 -14 36 -39 51 -56 29
-32 89 -117 107 -152 11 -19 8 -23 -25 -40 -20 -10 -38 -21 -41 -24 -3 -3 -30
-19 -60 -35 -59 -31 -233 -143 -291 -187 l-35 -26 -40 26 c-21 15 -40 30 -42
35 -2 4 -8 8 -12 8 -5 0 -51 27 -102 60 -88 58 -300 170 -343 182 -11 4 -51
17 -90 31 -74 27 -193 63 -235 71 -14 2 -56 11 -95 19 -38 9 -92 18 -120 21
-27 4 -81 10 -120 15 -70 9 -472 8 -510 -2 -11 -2 -45 -8 -75 -12 -30 -4 -64
-9 -75 -11 -11 -3 -53 -11 -93 -19 -40 -8 -76 -17 -81 -19 -5 -3 -25 -8 -45
-11 -27 -5 -36 -3 -36 8 0 37 100 134 192 186 68 38 173 93 178 93 3 0 16 5
30 10 79 31 188 70 209 74 14 3 28 7 33 10 4 3 16 7 25 9 10 1 45 10 78 18 33
9 82 18 109 22 27 3 52 8 55 9 8 5 123 17 205 21 38 3 70 6 72 8 3 3 279 0
354 -4z m4167 -104 c48 -9 148 -44 191 -67 17 -10 32 -16 32 -13 0 4 64 -36
85 -53 6 -5 16 -11 22 -13 6 -2 36 -26 67 -52 98 -86 201 -232 265 -377 45
-103 60 -140 67 -165 1 -5 14 -47 28 -92 13 -45 27 -95 30 -110 3 -15 15 -71
25 -123 11 -52 23 -121 26 -152 3 -31 8 -67 11 -80 4 -22 11 -107 20 -238 6
-99 5 -472 -1 -478 -3 -3 -85 -7 -183 -8 -97 -1 -204 -5 -237 -8 -144 -15
-171 -18 -185 -21 -8 -3 -40 -7 -70 -10 -30 -4 -58 -9 -62 -11 -5 -3 -20 -7
-33 -10 -14 -2 -35 -6 -47 -8 -41 -7 -152 -37 -213 -57 -33 -11 -67 -22 -75
-24 -13 -3 -82 -28 -135 -50 -11 -5 -22 -9 -25 -10 -24 -8 -80 -33 -157 -71
-50 -24 -96 -44 -102 -44 -6 0 -11 -4 -11 -8 0 -4 -25 -21 -56 -37 -98 -53
-274 -169 -330 -220 -6 -5 -27 -23 -47 -38 -92 -72 -259 -234 -339 -329 -71
-84 -138 -171 -138 -179 0 -11 -30 -12 -30 -1 -1 23 -241 264 -365 367 -33 28
-62 53 -65 56 -3 3 -48 34 -100 70 -52 35 -97 66 -100 69 -3 3 -18 12 -35 20
-16 8 -36 21 -43 28 -7 6 -17 12 -22 12 -5 0 -12 14 -15 32 -4 17 -25 83 -46
147 -22 64 -41 123 -43 131 -13 47 -162 365 -209 445 -7 11 -28 47 -47 80 -19
33 -38 65 -42 70 -18 22 -58 81 -74 110 -9 16 -23 35 -31 43 -8 8 -22 27 -31
41 -20 32 -31 45 -57 74 -11 12 -36 42 -55 67 -19 25 -47 58 -62 74 -16 16
-28 32 -28 35 0 9 227 144 233 140 3 -2 13 3 23 12 18 16 143 71 234 105 107
39 310 91 390 99 19 2 35 5 35 5 0 3 40 7 115 14 71 7 404 7 460 1 19 -2 58
-6 85 -9 79 -9 129 -17 240 -42 24 -5 124 -30 144 -35 23 -7 220 -74 315 -109
77 -27 99 -31 155 -27 81 6 149 36 202 90 38 39 74 105 83 151 3 12 12 53 21
91 30 125 32 134 39 176 3 19 10 49 15 67 5 18 10 36 10 40 4 38 70 202 113
282 65 120 91 154 115 145 6 -2 29 -7 50 -10z m-4947 -915 c13 0 60 -5 105
-11 78 -10 102 -14 148 -23 12 -3 38 -8 57 -11 76 -15 280 -88 378 -136 257
-127 577 -381 747 -594 22 -27 47 -57 55 -65 8 -8 28 -33 43 -56 15 -22 36
-50 47 -62 11 -12 20 -24 20 -27 0 -2 23 -40 50 -82 28 -43 50 -83 50 -90 0
-6 4 -13 8 -15 10 -4 112 -209 143 -288 39 -100 96 -282 106 -335 32 -183 89
-271 221 -340 31 -16 59 -33 62 -36 3 -3 21 -14 40 -25 19 -10 37 -21 40 -24
3 -3 25 -18 50 -35 44 -29 153 -109 177 -130 6 -5 31 -26 54 -45 51 -43 209
-198 266 -263 79 -89 253 -326 320 -437 37 -61 123 -234 123 -245 0 -3 7 -19
16 -36 21 -42 84 -219 77 -219 -3 0 -1 -6 4 -12 12 -15 30 -85 54 -203 15 -77
18 -97 21 -132 1 -18 5 -33 8 -33 6 0 8 -61 9 -225 0 -121 -1 -145 -13 -245
-7 -55 -11 -79 -29 -155 -4 -16 -9 -39 -11 -50 -10 -52 -70 -214 -111 -300
-37 -77 -50 -95 -68 -96 -12 0 -29 -2 -38 -4 -8 -1 -42 -6 -75 -10 -32 -3 -75
-9 -94 -11 -19 -3 -53 -7 -75 -9 -22 -2 -61 -7 -86 -10 -49 -7 -103 -11 -279
-21 -229 -13 -720 -7 -720 10 0 5 -6 3 -13 -3 -8 -6 -16 -9 -19 -6 -3 3 -36 7
-74 10 -38 2 -87 7 -109 10 -38 4 -67 8 -190 20 -27 3 -61 7 -74 10 -13 2 -49
7 -80 10 -31 4 -69 10 -86 14 -16 4 -38 7 -48 5 -16 -2 -51 29 -122 108 -95
107 -145 167 -145 177 0 6 -4 11 -8 11 -18 0 -322 430 -305 430 5 0 3 4 -3 8
-18 12 -110 171 -175 302 l-37 75 31 19 c57 35 198 126 210 136 7 6 32 27 57
48 61 51 198 187 240 241 19 24 41 50 48 57 6 7 12 17 12 22 0 6 3 12 8 14 16
7 112 168 160 269 52 110 121 303 142 399 6 30 14 62 17 70 8 20 11 37 17 85
3 22 8 49 10 60 3 11 8 47 12 79 3 33 8 69 11 80 7 34 11 150 5 161 -3 5 -7
20 -8 33 -7 59 -89 159 -160 194 -131 64 -310 21 -398 -95 -32 -43 -63 -139
-66 -207 -2 -54 -7 -105 -10 -105 -1 0 -3 -15 -6 -34 -10 -83 -44 -212 -80
-307 -39 -107 -130 -281 -164 -314 -3 -3 -18 -23 -34 -45 -16 -22 -66 -76
-112 -120 -88 -85 -140 -123 -141 -102 -1 20 -13 140 -18 177 -11 81 -6 377 9
475 3 17 8 50 11 75 7 43 17 97 29 150 3 14 8 39 12 55 15 72 89 292 105 311
5 6 10 19 12 30 6 38 180 361 206 384 8 6 26 44 44 90 22 58 7 217 -23 235 -6
4 -8 10 -6 14 8 13 -87 107 -127 125 -122 56 -260 27 -355 -73 -34 -36 -120
-169 -169 -262 -15 -30 -31 -56 -34 -59 -3 -3 -12 -22 -18 -42 -7 -21 -16 -38
-21 -38 -4 0 -11 -11 -14 -24 -3 -14 -19 -53 -35 -88 -16 -35 -32 -73 -36 -85
-3 -13 -10 -23 -14 -23 -9 0 -39 92 -49 151 -8 52 -8 248 2 301 12 69 57 179
111 270 30 50 58 112 64 137 18 82 -2 186 -46 237 -56 68 -78 85 -138 114
-105 50 -202 42 -310 -24 -32 -20 -115 -116 -115 -133 0 -6 -23 -55 -50 -110
-51 -102 -102 -237 -116 -308 -10 -51 -11 -55 -14 -57 -1 -2 -3 -12 -5 -23 -1
-11 -6 -47 -11 -80 -15 -111 -9 -336 12 -436 2 -13 7 -37 9 -54 15 -102 122
-354 196 -462 16 -23 29 -46 29 -52 0 -6 4 -11 8 -11 4 0 15 -13 25 -29 23
-39 146 -190 176 -217 24 -21 24 -22 27 -245 1 -123 5 -240 9 -259 4 -19 7
-42 7 -50 0 -18 17 -156 24 -190 3 -14 7 -38 9 -55 6 -40 13 -73 19 -93 3 -9
7 -28 10 -42 7 -33 11 -51 34 -137 11 -40 17 -73 13 -73 -3 0 -1 -4 5 -8 5 -4
21 -43 33 -86 13 -44 32 -100 43 -125 26 -62 36 -87 47 -113 30 -77 136 -295
153 -315 6 -7 8 -13 4 -13 -8 0 46 -99 86 -157 16 -24 26 -43 22 -43 -27 0
-344 199 -373 234 -8 9 -17 16 -22 16 -5 0 -18 8 -30 17 -11 10 -30 26 -42 36
-143 116 -317 289 -397 396 -14 18 -33 41 -42 49 -10 9 -18 20 -18 25 0 5 -7
16 -16 24 -16 16 -174 249 -174 256 0 2 -22 42 -48 88 -59 104 -176 345 -197
409 -1 3 -7 19 -14 35 -43 107 -136 380 -144 420 -2 11 -7 27 -10 35 -6 14
-24 82 -33 122 -2 10 -6 26 -9 36 -6 24 -26 104 -30 122 -2 8 -10 44 -18 80
-8 36 -18 81 -21 100 -3 19 -8 46 -11 60 -6 32 -23 125 -30 170 -3 19 -7 46
-10 60 -8 43 -25 160 -31 212 -2 18 -6 52 -8 74 -3 23 -7 61 -10 85 -12 106
-17 158 -22 219 -18 246 -27 427 -28 594 l-1 149 65 27 c36 15 96 41 133 58
38 18 73 32 78 32 5 0 9 4 9 10 0 5 3 9 8 8 4 -1 32 10 62 24 30 14 58 26 63
27 4 0 13 6 20 12 17 16 195 111 315 170 111 53 339 133 412 144 24 4 47 8 51
11 4 2 28 6 55 9 27 3 56 8 64 10 8 2 49 7 90 10 41 4 76 8 77 8 1 1 39 1 85
-1 45 -1 94 -3 108 -2z m5830 -1706 c47 -3 91 -7 98 -7 6 0 12 -4 12 -9 0 -5
5 -6 11 -3 11 8 157 -23 175 -37 6 -4 10 -25 8 -45 -5 -78 -15 -179 -19 -193
-2 -8 -7 -42 -11 -75 -3 -33 -8 -69 -11 -80 -2 -11 -6 -36 -9 -55 -2 -19 -7
-42 -9 -50 -2 -8 -7 -31 -11 -50 -8 -44 -12 -65 -14 -65 -1 0 -3 -11 -5 -25
-2 -14 -11 -54 -20 -90 -10 -36 -18 -69 -19 -75 -8 -32 -30 -110 -52 -178 -14
-43 -27 -83 -28 -90 -2 -7 -9 -25 -15 -42 -7 -16 -14 -34 -15 -40 -4 -16 -25
-68 -37 -90 -5 -12 -11 -27 -13 -35 -1 -8 -12 -37 -24 -64 -12 -27 -22 -51
-22 -54 0 -14 -209 -422 -221 -432 -4 -3 -15 -21 -25 -40 -11 -19 -29 -49 -41
-67 -13 -17 -23 -36 -23 -42 0 -6 -4 -11 -10 -11 -5 0 -10 -7 -10 -16 0 -8 -4
-13 -8 -10 -5 3 -3 33 4 68 22 109 25 122 29 163 3 22 8 58 11 80 3 22 8 54 9
70 2 17 5 30 6 30 1 0 3 18 4 40 2 22 4 40 5 40 1 0 3 17 5 37 1 20 6 68 10
105 24 239 31 494 21 807 -7 200 -24 258 -102 338 -152 157 -421 104 -516
-102 -22 -47 -32 -152 -17 -181 4 -9 11 -78 14 -155 4 -76 7 -141 7 -144 0 -3
0 -7 -1 -10 -1 -3 -3 -63 -5 -135 -5 -189 -5 -195 -13 -195 -13 1 -70 93 -86
140 -9 25 -19 67 -22 94 -15 127 -103 229 -223 260 -47 13 -133 14 -162 3 -8
-3 -32 -11 -52 -17 -74 -23 -173 -139 -184 -215 -11 -77 2 -196 33 -295 9 -30
17 -57 18 -60 15 -49 69 -152 118 -225 45 -66 193 -215 214 -215 7 0 13 -4 13
-10 0 -5 7 -10 15 -10 8 0 15 -4 15 -8 0 -16 150 -72 191 -72 11 0 19 -4 19
-8 0 -13 -78 -295 -90 -327 -7 -16 -13 -37 -15 -45 -12 -54 -107 -299 -166
-430 -49 -109 -158 -322 -175 -341 -28 -31 -318 -159 -331 -145 -1 1 2 18 7
37 5 19 11 45 14 59 3 14 10 50 16 80 6 30 13 71 16 90 3 19 7 46 10 60 9 51
18 208 17 310 -1 185 -13 315 -48 493 -13 68 -17 85 -31 137 -8 30 -16 62 -17
70 -3 18 -64 206 -76 235 -5 11 -15 36 -22 55 -27 75 -136 306 -185 392 l-26
46 31 47 c17 25 31 48 31 51 0 7 134 185 164 217 14 15 26 30 26 33 0 5 165
168 201 199 13 11 53 43 89 70 36 28 67 52 70 55 15 16 179 115 270 162 170
89 431 183 561 202 20 3 42 7 50 10 8 3 32 7 54 10 22 3 51 8 65 10 14 3 58 8
99 10 41 3 75 7 77 8 4 5 217 0 304 -8z"/>
</g>
</svg>
