<svg id="Capa_1" data-name="Capa 1" xmlns="http://www.w3.org/2000/svg" viewBox="0 0 33.98 51.34"><defs><style>.cls-1{fill:#1d3a28;}</style></defs><title>Mesa de trabajo 8</title><path class="cls-1" d="M736.64,88.79C444.19,202.43,181.71,197.67-5.94,165.4c-182.2-31.34-440-136.26-532.5-150.14C-724.06-12.56-964-5.83-1270.36,82.79v1041H719.47l17.18-1035h0Z"/><path class="cls-1" d="M16,6.85c.14.82.22,1.65.41,2.46a20.19,20.19,0,0,0,.68,2.43.79.79,0,0,1,0,.63,23.11,23.11,0,0,1-2.85,4.8A40.51,40.51,0,0,1,10,21.68c-.88.83-1.72,1.69-2.58,2.53a19.41,19.41,0,0,0-2.92,3.55,12.5,12.5,0,0,0-1.88,6,14.94,14.94,0,0,0,.88,6,12.44,12.44,0,0,0,1.91,3.4,13.46,13.46,0,0,0,3.33,3,15.6,15.6,0,0,0,4.69,2,13.92,13.92,0,0,0,4.13.42,14.81,14.81,0,0,0,4.91-1.1,15.48,15.48,0,0,0,3.8-2.21,12.84,12.84,0,0,0,3.35-4,14.2,14.2,0,0,0,1.59-7.23,13.16,13.16,0,0,0-1.72-6.35,23.71,23.71,0,0,0-3.26-4.23c-1.29-1.39-2.63-2.73-3.85-4.18a25.78,25.78,0,0,1-3.13-4.52A22.49,22.49,0,0,1,17.09,8.5a32.25,32.25,0,0,1-.47-7.27A1.33,1.33,0,0,1,18,0a1.3,1.3,0,0,1,1.3,1.27c0,.67,0,1.35,0,2A24.94,24.94,0,0,0,20,9.49a20,20,0,0,0,3.47,7,55.1,55.1,0,0,0,3.91,4.42A36.92,36.92,0,0,1,30.9,25,16,16,0,0,1,33,29a18,18,0,0,1-.09,11.56,15.16,15.16,0,0,1-4,6.06A17.42,17.42,0,0,1,23.46,50a18,18,0,0,1-4.94,1.23,16.16,16.16,0,0,1-5-.29,18.51,18.51,0,0,1-6.62-2.82,15.48,15.48,0,0,1-6.3-8.77A18.11,18.11,0,0,1,0,33.23,14.39,14.39,0,0,1,1.6,27.58a19,19,0,0,1,2.76-4c1.18-1.32,2.47-2.53,3.74-3.76a33.2,33.2,0,0,0,4.83-5.44,18.16,18.16,0,0,0,2.41-5.15,21.74,21.74,0,0,0,.55-2.37S15.93,6.82,16,6.85Z"/><path class="cls-1" d="M21.08,35.3l1.29-4a1,1,0,0,1,1-.79,1,1,0,0,1,1.06.79c.41,1.31.82,2.62,1.22,3.93,0,0,0,.07.07.17l.43-1.4L27,31.24a1,1,0,0,1,1.35-.67,1,1,0,0,1,.68,1.19c-.22.82-.54,1.61-.83,2.41l-1.16,3.21a2.88,2.88,0,0,1-.33.67,1.19,1.19,0,0,1-1.25.48,1.06,1.06,0,0,1-.91-.76c-.39-1.08-.72-2.19-1.06-3.28a.42.42,0,0,0-.16-.27l-1,3.12a1.59,1.59,0,0,1-.74,1.09,1.29,1.29,0,0,1-1.79-.71c-.32-.82-.61-1.66-.9-2.49-.38-1.08-.74-2.16-1.11-3.24a1.76,1.76,0,0,1-.07-.26c-.12-.7.1-1.06.74-1.21a1,1,0,0,1,1.3.76L21,35.11C21,35.18,21,35.25,21.08,35.3Z"/><path class="cls-1" d="M15.72,40.74c.72,0,1.35,0,2,0a.68.68,0,0,1,.61,1.07.7.7,0,0,1-.68.3H14.23a.78.78,0,0,1-.79-.38.8.8,0,0,1,.24-.93c.63-.72,1.26-1.43,1.88-2.15a7.09,7.09,0,0,0,.83-1.14,1.08,1.08,0,0,0,.15-.92.77.77,0,0,0-.7-.56.8.8,0,0,0-.76.54l-.22.62a.66.66,0,0,1-.77.51.72.72,0,0,1-.65-.78,2.3,2.3,0,0,1,1.17-2,2.43,2.43,0,0,1,2.6,0A2.14,2.14,0,0,1,18,37.81,10.13,10.13,0,0,1,16.31,40Z"/><path class="cls-1" d="M16,6.85l-.12.07A.27.27,0,0,1,16,6.65.21.21,0,0,1,16,6.85Z"/><path class="cls-1" d="M12.73,28.26a1.15,1.15,0,0,0-1-1.23,1.07,1.07,0,0,0-1.21,1.14c0,.86,0,1.71,0,2.57,0,.09,0,.2,0,.25s-.16-.05-.23-.1a3.28,3.28,0,0,0-4.06.42,4.56,4.56,0,0,0-1.15,2.75,4.22,4.22,0,0,0,1.37,3.75,2.87,2.87,0,0,0,4.06-.08c.08.05.08.12.1.17a1.09,1.09,0,0,0,1.85.21,1.56,1.56,0,0,0,.25-.88q0-3.67,0-7.34C12.73,29.35,12.74,28.8,12.73,28.26ZM10.06,36a1.46,1.46,0,0,1-2.58-.32,2.67,2.67,0,0,1,.37-2.91,1.47,1.47,0,0,1,2.41.46A2.79,2.79,0,0,1,10.06,36Z"/><path class="cls-1" d="M31.64,16.71A2.34,2.34,0,1,0,34,19.13,2.35,2.35,0,0,0,31.64,16.71Zm0,4.16A1.8,1.8,0,0,1,29.82,19a1.8,1.8,0,1,1,3.6,0A1.79,1.79,0,0,1,31.61,20.87Z"/><path class="cls-1" d="M32.2,19.21c.35-.1.5-.41.45-.84a.66.66,0,0,0-.58-.6,6.92,6.92,0,0,0-1.2-.06c-.17,0-.23.07-.23.24,0,.36,0,.72,0,1.09s0,.74,0,1.12c0,.17.09.24.24.24s.2-.1.2-.24,0-.42,0-.63.1-.27.29-.25a.29.29,0,0,1,.23.17c.16.27.32.53.48.8a.33.33,0,0,0,.47.12c.15-.09,0-.22-.06-.33s-.24-.39-.37-.58S32,19.27,32.2,19.21Zm-.29-.36a2.08,2.08,0,0,1-.39,0c-.44,0-.55-.16-.44-.61a.13.13,0,0,1,.14-.12l.66,0a.31.31,0,0,1,.33.32A.35.35,0,0,1,31.91,18.85Z"/></svg>