<svg id="Capa_1" data-name="Capa 1" xmlns="http://www.w3.org/2000/svg" viewBox="0 0 60.36 60.37"><defs><style>.cls-1{fill:#1d3a28;}</style></defs><title>Mesa de trabajo 10</title><path class="cls-1" d="M557.71,93.3C265.26,207,2.77,202.19-184.87,169.92c-182.2-31.34-440-136.26-532.5-150.14C-903-8-1142.91-1.31-1449.29,87.3v1041H540.53l17.18-1035h0Z"/><path class="cls-1" d="M23.61,24.15,20,19.71l-3.39,4.6-.07.1a4.44,4.44,0,0,0,1.16,6.22,4.39,4.39,0,0,0,2.19.74v1.45a.87.87,0,1,0,.71,0V31.37a4.43,4.43,0,0,0,3-7.22m-.45,3.18a3,3,0,0,1-2.59,2.62V28.85L23,27.4l-.36-.6L20.55,28l0-1.53,1.32-.8-.36-.6-1,.59,0-2h-.7l0,2-1-.54-.33.62,1.36.73,0,1.53-2.13-1.15-.34.62,2.49,1.34V30a3,3,0,0,1-1.38-.5,2.85,2.85,0,0,1-.37-.3,3,3,0,0,1-.42-3.93l-.59-.41.63.34L20.05,22l2.46,3a3,3,0,0,1,.66,2.27"/><path class="cls-1" d="M42.78,24.15l-3.62-4.44-3.44,4.68.56.44.63.34L39.22,22l2.46,3a3,3,0,0,1-1.93,4.89V28.85l2.42-1.46-.36-.6L39.72,28l0-1.53,1.32-.8-.36-.6-1,.59,0-2h-.7l0,2-1-.54-.33.62,1.36.73,0,1.53-2.13-1.15-.33.62L39,28.87V30a3,3,0,0,1-1.39-.5,3,3,0,0,1-.79-4.22l-.59-.41-.58-.42h0a4.46,4.46,0,0,0,.62,5.79,4.16,4.16,0,0,0,.55.43,4.39,4.39,0,0,0,2.19.74v1.45a.87.87,0,1,0,.7,0V31.36a4.43,4.43,0,0,0,3-7.22"/><path class="cls-1" d="M34.26,21.2l-4.64-5.69-4.35,5.91-.09.13a5.68,5.68,0,0,0,1.49,8,5.65,5.65,0,0,0,2.79.94V33a.91.91,0,0,0-.41.75.93.93,0,1,0,1.86,0,.92.92,0,0,0-.5-.81V30.45a5.68,5.68,0,0,0,3.86-9.25m-.18,4.12A4.23,4.23,0,0,1,30.39,29V27.34l3.23-1.95-.49-.81-2.77,1.67-.05-2,1.77-1.06-.49-.81-1.31.79-.06-2.62h-.94l.07,2.62L28,22.43l-.45.83,1.82,1,.05,2-2.85-1.53-.44.83,3.32,1.78V29a4.2,4.2,0,0,1-2-.7,4.27,4.27,0,0,1-1.12-6l3.33-4.52,3.48,4.26a4.23,4.23,0,0,1,.93,3.22"/><path class="cls-1" d="M31.1,43.33c-.88,0-1.48.83-1.48,1.94s.6,1.93,1.48,1.93,1.49-.82,1.49-1.93S32,43.33,31.1,43.33Z"/><path class="cls-1" d="M36.77,43.77a.59.59,0,1,0-1.16,0,.58.58,0,1,0,1.16,0Z"/><path class="cls-1" d="M24.83,43.33c-.88,0-1.48.83-1.48,1.94s.6,1.93,1.48,1.93,1.48-.82,1.48-1.93S25.71,43.33,24.83,43.33Z"/><path class="cls-1" d="M39.81,46.13a.61.61,0,0,0-.58.67.58.58,0,1,0,1.16,0A.61.61,0,0,0,39.81,46.13Z"/><path class="cls-1" d="M41.89,15.53a1.06,1.06,0,0,0,1.63-.09c.42-.52.29-1.11-.31-1.6L43,13.67l-1.35,1.66Z"/><polygon class="cls-1" points="40.31 13.29 40.53 12.02 39.55 12.87 40.31 13.29"/><path class="cls-1" d="M27.55,11.44c.79-.08,1.16-.54,1.1-1.2s-.57-1-1.34-.92l-.27,0,.2,2.13Z"/><path class="cls-1" d="M17.57,15.16a1,1,0,0,0,.76-.18,1.11,1.11,0,1,0-1.49-.3A1.14,1.14,0,0,0,17.57,15.16Z"/><polygon class="cls-1" points="14.27 15.55 14.82 16.71 15.43 16.1 14.27 15.55"/><path class="cls-1" d="M37.85,11.26c.12-.3-.08-.54-.48-.69l-.27-.1-.35.93.28.12C37.4,11.65,37.73,11.56,37.85,11.26Z"/><polygon class="cls-1" points="46.04 16.47 44.84 16.96 45.42 17.6 46.04 16.47"/><path class="cls-1" d="M48,19.83c.22-.14.22-.4,0-.72l-.19-.29-.71.46.2.3C47.54,19.89,47.79,20,48,19.83Z"/><path class="cls-1" d="M47,19.85l-.22-.34L46,20l.23.35c.2.31.46.43.71.27S47.22,20.18,47,19.85Z"/><path class="cls-1" d="M60,28.42a2.34,2.34,0,0,0-.35-2.9l-3.75-3.7A2.34,2.34,0,0,1,55.21,20l.38-5.28a2.35,2.35,0,0,0-1.66-2.41l-5-1.51a2.34,2.34,0,0,1-1.47-1.31L45.35,4.65a2.34,2.34,0,0,0-2.6-1.37l-5.11,1a2.34,2.34,0,0,1-1.92-.48L31.65.52a2.35,2.35,0,0,0-2.95,0L24.64,3.8a2.34,2.34,0,0,1-1.92.48l-5.11-1A2.34,2.34,0,0,0,15,4.64L12.91,9.47a2.34,2.34,0,0,1-1.47,1.31l-5,1.51a2.34,2.34,0,0,0-1.66,2.41L5.15,20a2.34,2.34,0,0,1-.69,1.84L.7,25.52a2.34,2.34,0,0,0-.35,2.9l2.77,4.5a2.35,2.35,0,0,1,.24,1.95l-1.62,5a2.34,2.34,0,0,0,1,2.73l4.51,2.68A2.34,2.34,0,0,1,8.4,46.94l.89,5.2a2.34,2.34,0,0,0,2.2,1.95l5.21.26a2.34,2.34,0,0,1,1.75.92l3.17,4.17a2.34,2.34,0,0,0,2.86.71l4.72-2.2a2.34,2.34,0,0,1,2,0l4.72,2.2a2.35,2.35,0,0,0,2.86-.71l3.17-4.17a2.34,2.34,0,0,1,1.75-.92l5.21-.26a2.34,2.34,0,0,0,2.2-1.95l.89-5.2a2.34,2.34,0,0,1,1.12-1.62l4.51-2.68a2.35,2.35,0,0,0,1-2.73l-1.62-5a2.35,2.35,0,0,1,.24-1.95ZM42.62,12.75l.91.74a1.53,1.53,0,0,1,.43,2.3,1.57,1.57,0,0,1-2.42.07l-.86-.7.3-.37.27.22,1.35-1.66-.27-.22ZM40,11.2l1.52.86-.23.41L41,12.3l-.39,2.24.23.13-.23.41-1-.59.23-.41.31.18.1-.53-1-.57-.4.36.33.18-.23.41-1-.59.23-.41.23.13,1.73-1.49-.29-.17Zm-4.16,1.08.76-2-.33-.12.17-.44,1.12.42c.66.25,1,.72.81,1.3a.9.9,0,0,1-.84.58l.15,1,.33.12-.17.44-.67-.25L37,12l-.18-.06-.24-.09-.25.65.36.14-.17.44-1.18-.45.17-.44ZM32.5,10.4a1.58,1.58,0,0,1,1.92-1.24c.7.15,1.1.61,1,1a.35.35,0,0,1-.41.3.33.33,0,0,1-.28-.4.38.38,0,0,1,.06-.15.9.9,0,0,0-.51-.25A1,1,0,0,0,33,10.5a1.05,1.05,0,0,0,.76,1.3,1.3,1.3,0,0,0,.77,0l.11-.52-.75-.16.09-.44,1.26.26L35,12.48l-.5-.1,0-.23a1.33,1.33,0,0,1-.88.11A1.51,1.51,0,0,1,32.5,10.4Zm-2.84.89.35,0,.12-2.14-.35,0,0-.47,2.3.13-.05.88-.51,0,0-.41-.91-.05,0,.82.93.05,0,.45-.93-.05,0,.87.92.05,0-.41L32,11l0,.88-2.3-.13ZM27.28,8.84c1.11-.11,1.82.41,1.91,1.34s-.47,1.62-1.68,1.74l-1.11.1,0-.47.35,0-.2-2.13-.35,0,0-.47Zm-3,.51.26.84-.48.15-.12-.39-.88.27.24.79.89-.27.13.43-.89.27.26.83.88-.27-.12-.39.48-.15.26.84L23,13l-.14-.45.34-.1-.63-2-.34.1L22.07,10ZM19.86,11l.21.43-.34.16.63,1.32a.62.62,0,0,0,.89.38.61.61,0,0,0,.27-.91L20.88,11l-.34.16-.2-.43,1.1-.53.2.43-.3.15L22,12.15a1.16,1.16,0,1,1-2.09,1l-.64-1.34-.3.15-.21-.43Zm-3.08,1.77a1.54,1.54,0,0,1,2.21.4A1.47,1.47,0,0,1,19,15l.18,0a.7.7,0,0,0,.4-.11.65.65,0,0,0,.26-.38l.47.18a.86.86,0,0,1-.39.59,2,2,0,0,1-1.09.23,1,1,0,0,0-.41.1,1.61,1.61,0,0,1-1,.14,1.58,1.58,0,0,1-1-.67A1.55,1.55,0,0,1,16.78,12.77ZM14.57,14.6l.33.33-.24.24,2.06,1,.19-.19.33.34-.84.84-.33-.33.25-.25-.48-.24-.82.81.23.48.27-.26.33.33-.84.84-.34-.34.19-.19-1-2.06-.24.24-.33-.33Zm-3.75,12-.48-.15.12-.36-2.17-.7-.11.36-.48-.15.75-2.34.9.29-.17.51L8.76,24l-.3.93.84.27.3-.95.46.15-.31.95.89.29.3-.93-.42-.13.16-.51.9.29Zm2-4.95-.45-.23.18-.35L11,20.38l1,1.59L12,22l-1.9.07,1.48.84.18-.35.45.23L11.62,24l-.45-.23.18-.35-2-1.14-.19.36-.45-.23.42-.8,2.09-.05-1.16-1.74L10.5,19l.45.23-.19.36,2.07,1,.18-.35.45.23Zm.79-1.35-.4-.3.23-.3-1.82-1.38-.23.3-.4-.31.8-1.06a1.11,1.11,0,1,1,1.72,1.38l-.2.25.47.36L14,19l.4.3Zm7.71,27.76H17.61v-1H18.9V43.65l-1.09.26-.27-1,2-.5h.57v4.68h1.27Zm3.49.09a2.92,2.92,0,1,1,2.69-2.91A2.72,2.72,0,0,1,24.83,48.18Zm6.26,0a2.92,2.92,0,1,1,2.69-2.91A2.72,2.72,0,0,1,31.1,48.18Zm3.65-4.42a1.44,1.44,0,1,1,1.44,1.4A1.43,1.43,0,0,1,34.75,43.75Zm.88,4.5-.45-.44c.52-.52,1.75-1.78,2.65-2.71s2.1-2.29,2.55-2.82l.45.44c-.52.52-1.75,1.75-2.66,2.7S36.08,47.72,35.63,48.25Zm4.18-.08a1.4,1.4,0,1,1,1.44-1.4A1.43,1.43,0,0,1,39.81,48.18ZM41.66,39a27.84,27.84,0,0,0-11.81-2.52,29.25,29.25,0,0,0-12,2.36A15.16,15.16,0,1,1,41.66,39Zm2.68-20.47.35-.31.24.27.26-.47-.77-.86-.49.21.25.28-.35.31L43,17.06l.35-.32.18.2,2.11-.85-.22-.25.35-.31L47,16.83l-.35.31-.22-.25-1.09,2,.18.2-.35.32Zm1.54,2.07-.7-1.08.4-.26.19.29,1.79-1.17-.19-.29.4-.26.67,1c.41.63.32,1.13-.07,1.39a.71.71,0,0,1-.87-.07.73.73,0,0,1-.27.91C46.8,21.37,46.28,21.22,45.87,20.59Zm.75,1.21.43-.2.15.32L49.14,21,49,20.67l.43-.2L50,21.64l-.43.2-.17-.37-1.94.92.36.77.39-.19.22.46-.82.39Zm3.85,3.73L50.32,25l.39-.13-.28-.87-.79.25.29.89-.43.14-.29-.89-.83.27.28.88.39-.13.16.48-.84.27L47.67,24l.45-.15.11.34,2-.66-.11-.33.45-.15.71,2.19Z"/><path class="cls-1" d="M12.19,17.61,12,17.9l.95.72.23-.29a.61.61,0,1,0-1-.71Z"/></svg>