<?xml version="1.0" encoding="utf-8"?>
<!-- Generator: Adobe Illustrator 21.0.0, SVG Export Plug-In . SVG Version: 6.00 Build 0)  -->
<svg version="1.1" id="Capa_1" xmlns="http://www.w3.org/2000/svg" xmlns:xlink="http://www.w3.org/1999/xlink" x="0px" y="0px"
	 viewBox="0 0 58 51.4" style="enable-background:new 0 0 58 51.4;" xml:space="preserve">
<style type="text/css">
	.st0{fill:#92D30B;}
</style>
<title>Mesa de trabajo 4</title>
<path class="st0" d="M55.7,22.7c0.3-6.1-0.8-10.7-3.3-13.6c-1.6-2-4-3.2-6.5-3.4C41.4,2.1,35.8,0.1,30,0.2c-5.6,0-11.1,1.8-15.5,5.3
	C12.9,5.8,8.3,7.2,7,10.3c0,0.1-0.1,0.3-0.1,0.4l-0.5,2.9c-0.9,0.4-2.6,1.3-4.3,2.1c-0.7,0.3-1.1,1-1.1,1.8c0,13.3,3.1,22.5,9.3,28
	c6.1,5.3,14.2,6,19.8,6c9,0,16.1-2.7,21-8.1c4.1-4.5,6.4-10.8,6.7-18.2C57.7,23.8,56.8,23.2,55.7,22.7z M36,47c-2,0.3-4,0.5-6,0.5
	c-2.4,0-4.8-0.2-7.2-0.6c-1.8-1.9-3.3-4-4.5-6.3c-0.1-0.2-0.2-0.4-0.3-0.6c2.2-1.2,5.5-3.8,6.1-9.9c0.3-1.1-0.3-2.2-1.3-2.5
	c-1.1-0.3-2.2,0.3-2.5,1.3c-0.1,0.3-0.1,0.5-0.1,0.8c-0.4,3.7-2.1,5.5-3.4,6.4c-0.6-3.7,0.2-7.4,2.3-10.5c0.6-0.9,0.3-2.1-0.5-2.7
	c-0.9-0.6-2.1-0.3-2.7,0.6c-0.8,1.2-1.4,2.4-1.9,3.7c-0.6-1.5-0.5-3.2,0.4-4.6c0.7-0.9,0.6-2.1-0.3-2.8s-2.1-0.6-2.8,0.3
	c-0.2,0.2-0.3,0.4-0.4,0.7c-1.6,2.8-1.6,6.2,0,8.9c0.5,0.9,1.2,1.8,1.9,2.5c-0.2,3.5,0.5,6.9,2,10c0.4,0.8,0.8,1.7,1.3,2.4
	c-1.2-0.6-2.3-1.4-3.3-2.2C7.6,38,5,30.2,4.8,18.8c1.5-0.6,2.9-1.3,4.3-2.1c3.4-1.8,7.4-1.9,10.8-0.2c4.1,2.2,7,6.1,7.9,10.6
	c0.1,0.6,0.5,1.1,1,1.4c2.4,1.3,4.4,3.1,5.9,5.4C35,34.1,39.5,40.6,36,47z M51.8,22.2c-0.4,0-0.8,0-1.2,0c-5.6,0-10.9,2.6-14.2,7.2
	c-1.3-1.6-2.9-3-4.7-4c-0.8-3.1-2.4-6-4.6-8.4c2.4-1.7,5.3-2.5,8.2-2.4c2.1,0,4.2,0.5,6.1,1.3c1,0.4,2.2,0,2.6-1.1
	c0-0.1,0.1-0.2,0.1-0.3c0.1-0.4,0.2-0.9,0.3-1.3c0.2-1.3,0.7-2.6,1.5-3.7c1.4,0.2,2.7,0.9,3.6,2C51.2,13.7,52,17.3,51.8,22.2z
	 M40.8,11.4c-1.8-0.6-3.7-0.8-5.6-0.8c-1.6,0-3.1,0.2-4.6,0.5c-1.4-3.1-4.3-5.3-7.7-5.8c2.3-0.8,4.7-1.2,7.1-1.2
	c4.4-0.1,8.7,1.2,12.3,3.8C41.6,9,41,10.2,40.8,11.4L40.8,11.4z M15.7,9.2L15.7,9.2c0.1,0,8.5-1.8,11.1,3.3c-1,0.5-2,1.1-2.9,1.8
	c-0.7-0.5-1.5-1-2.2-1.4c-2.1-1.1-4.5-1.6-6.8-1.6c-1.4,0-2.8,0.2-4.2,0.6v-0.2C11.3,10.6,13.8,9.6,15.7,9.2z M50.2,29.5
	c0.1-1.1-0.6-2.1-1.7-2.3c-1.1-0.1-2.1,0.6-2.3,1.7c0,0.3,0,0.5,0.1,0.8c0.1,1.3,0.1,2.6,0,3.9l0,0c-0.4-0.4-0.7-1-0.7-1.6
	c-0.2-1.1-1.2-1.8-2.3-1.6c-1.1,0.2-1.8,1.2-1.6,2.3c0.2,1.7,1.1,3.3,2.6,4.3c0.4,0.3,0.9,0.4,1.4,0.5c-0.6,2.5-1.5,4.9-2.8,7.2
	c-0.7,0.4-1.4,0.7-2.1,0.9c1.6-5.7-0.7-10.7-2-12.9c2.4-4.2,7-6.8,11.9-6.8c1,0,2.1,0.1,3.1,0.4c-0.3,4.6-1.8,9-4.3,12.7
	C50.1,36,50.4,32.7,50.2,29.5z M36.5,47.5L36.5,47.5z"/>
</svg>
