<svg id="Capa_1" data-name="Capa 1" xmlns="http://www.w3.org/2000/svg" viewBox="0 0 578.86 51.24"><defs><style>.cls-1{fill:#fff;}</style></defs><title>Mesa de trabajo 13</title><polygon class="cls-1" points="0 39.98 5.84 39.98 5.84 28.52 11.47 28.52 11.47 23.07 5.84 23.07 5.84 16.18 13.02 16.18 13.02 10.74 0 10.74 0 39.98"/><path class="cls-1" d="M42.87,35.87V31.59c0-1.91-.25-4.45-2.2-5.94,1.44-1.16,2.16-3,2.16-5.6V17.86c0-4.79-2.36-7.12-7.2-7.12H28.31V40h5.84V28.68h.77c1.41,0,2.12.43,2.12,2.79v4.36a9.44,9.44,0,0,0,.42,3.61l.71-.2-.7.23.17.51h6.09l-.43-1A7.66,7.66,0,0,1,42.87,35.87ZM34.15,16.18h1.36c.81,0,1.48.16,1.48,2.12V21c0,1.84-.69,2.2-1.88,2.2h-1Z"/><polygon class="cls-1" points="58.92 39.98 72.3 39.98 72.3 34.54 64.76 34.54 64.76 27.88 70.75 27.88 70.75 22.44 64.76 22.44 64.76 16.18 72.3 16.18 72.3 10.74 58.92 10.74 58.92 39.98"/><path class="cls-1" d="M97,23.36c-1.88-1.72-3.5-3.2-3.5-5.5,0-1.84.71-2,1.44-2s1.44.15,1.44,2v1.89H102V18.14c0-4.91-2.61-7.72-7.16-7.72s-7.16,2.81-7.16,7.72c0,4.62,2.67,7.06,5,9.21,1.88,1.72,3.5,3.2,3.5,5.5,0,1.81-.79,2-1.52,2s-1.52-.15-1.52-2V30.13h-5.6v2.44c0,4.91,2.64,7.72,7.24,7.72S102,37.48,102,32.58C102,28,99.32,25.52,97,23.36Z"/><path class="cls-1" d="M124.57,10.42c-4.6,0-7.24,2.81-7.24,7.72V32.58c0,4.91,2.64,7.72,7.24,7.72s7.24-2.81,7.24-7.72V28.15h-5.6v4.7c0,1.81-.79,2-1.52,2s-1.52-.15-1.52-2v-15c0-1.84.79-2,1.52-2s1.52.15,1.52,2v3.71h5.6V18.14C131.81,13.24,129.17,10.42,124.57,10.42Z"/><path class="cls-1" d="M156.34,32.89c0,1.81-.75,2-1.52,2s-1.52-.15-1.52-2V10.74h-5.84V32.62c0,4.91,2.64,7.72,7.24,7.72s7.24-2.81,7.24-7.72V10.74h-5.6Z"/><path class="cls-1" d="M192.67,35.87V31.59c0-1.91-.25-4.45-2.2-5.94,1.44-1.16,2.16-3,2.16-5.6V17.86c0-4.79-2.36-7.12-7.2-7.12h-7.32V40H184V28.68h.77c1.41,0,2.12.43,2.12,2.79v4.36a9.44,9.44,0,0,0,.42,3.61l.71-.2-.7.23.17.51h6.09l-.43-1A7.66,7.66,0,0,1,192.67,35.87ZM184,16.18h1.36c.81,0,1.48.16,1.48,2.12V21c0,1.84-.69,2.2-1.88,2.2h-1Z"/><path class="cls-1" d="M212.12,10.74,207.44,40H213l.75-5h4.08l.75,5h5.91l-4.68-29.24Zm2.36,19,1.24-8.31L217,29.7Z"/><polygon class="cls-1" points="373.66 22.51 370.48 10.74 363.7 10.74 363.7 39.98 369.11 39.98 369.11 24.7 373.24 39.98 379.02 39.98 379.02 10.74 373.66 10.74 373.66 22.51"/><path class="cls-1" d="M401.92,10.74,397.24,40h5.51l.75-5h4.08l.75,5h5.91l-4.68-29.24Zm2.36,19,1.24-8.31,1.24,8.31Z"/><polygon class="cls-1" points="431.23 16.18 435.79 16.18 435.79 39.98 441.63 39.98 441.63 16.18 446.19 16.18 446.19 10.74 431.23 10.74 431.23 16.18"/><path class="cls-1" d="M473.14,32.89c0,1.81-.75,2-1.52,2s-1.52-.15-1.52-2V10.74h-5.84V32.62c0,4.91,2.64,7.72,7.24,7.72s7.24-2.81,7.24-7.72V10.74h-5.6Z"/><path class="cls-1" d="M512.64,35.87V31.59c0-1.91-.25-4.45-2.2-5.94,1.44-1.16,2.16-3,2.16-5.6V17.86c0-4.79-2.36-7.12-7.2-7.12h-7.32V40h5.84V28.68h.77c1.4,0,2.12.43,2.12,2.79v4.36a9.43,9.43,0,0,0,.42,3.61l.71-.2-.7.23.17.51h6.09l-.43-1A7.66,7.66,0,0,1,512.64,35.87Zm-8.72-19.69h1.36c.81,0,1.48.16,1.48,2.12V21c0,1.84-.69,2.2-1.88,2.2h-1Z"/><path class="cls-1" d="M535.26,10.74,530.58,40h5.51l.75-5h4.08l.75,5h5.91l-4.68-29.24Zm2.36,19,1.24-8.31,1.24,8.31Z"/><polygon class="cls-1" points="571.68 34.54 571.68 10.74 565.84 10.74 565.84 39.98 578.86 39.98 578.86 34.54 571.68 34.54"/><path class="cls-1" d="M317.61,22.56c.31-6.11-.79-10.69-3.28-13.64a9.69,9.69,0,0,0-6.52-3.43A25,25,0,0,0,292,0a25.36,25.36,0,0,0-15.54,5.25c-1.59.38-6.15,1.74-7.43,4.91a2,2,0,0,0-.11.39l-.52,2.93c-.9.45-2.61,1.26-4.35,2.05a2,2,0,0,0-1.15,1.78c0,13.33,3.05,22.48,9.34,28,6.13,5.35,14.21,6,19.75,6,9.05,0,16.11-2.73,21-8.12,4.09-4.54,6.4-10.84,6.66-18.21C319.62,23.62,318.71,23,317.61,22.56ZM297.93,46.82a34.26,34.26,0,0,1-6,.5,41.25,41.25,0,0,1-7.23-.56,24.4,24.4,0,0,1-4.45-6.33q-.15-.31-.28-.62c2.23-1.16,5.48-3.85,6.11-9.85a2,2,0,1,0-3.9-.41c-.39,3.67-2.07,5.51-3.4,6.41a14.1,14.1,0,0,1,2.31-10.45,2,2,0,0,0-.56-2.71,2,2,0,0,0-2.71.56,20.17,20.17,0,0,0-1.93,3.72,5.2,5.2,0,0,1,.36-4.55,2,2,0,1,0-3.47-1.83,8.93,8.93,0,0,0,0,8.92,11.09,11.09,0,0,0,1.94,2.49,19.42,19.42,0,0,0,2,10,26,26,0,0,0,1.33,2.44,17.06,17.06,0,0,1-3.28-2.24c-5.2-4.53-7.81-12.3-8-23.75a36.18,36.18,0,0,0,4.33-2.15,11.85,11.85,0,0,1,10.83-.2,15.73,15.73,0,0,1,7.91,10.59,2,2,0,0,0,1,1.41,15.57,15.57,0,0,1,5.9,5.41C297,33.91,301.42,40.43,297.93,46.82ZM313.72,22c-.4,0-.81,0-1.23,0a17.69,17.69,0,0,0-14.24,7.19,17.59,17.59,0,0,0-4.73-4,20.55,20.55,0,0,0-4.59-8.41,13.63,13.63,0,0,1,8.24-2.41,14.79,14.79,0,0,1,6.14,1.33A2,2,0,0,0,306,14.37c.11-.44.21-.85.3-1.27a7.8,7.8,0,0,1,1.47-3.66,5.75,5.75,0,0,1,3.56,2C313.09,13.53,313.91,17.16,313.72,22Zm-11-10.71a18.74,18.74,0,0,0-5.56-.84,20.53,20.53,0,0,0-4.61.5,10.22,10.22,0,0,0-7.71-5.83A21.57,21.57,0,0,1,292,3.92a20.85,20.85,0,0,1,12.26,3.76A10.51,10.51,0,0,0,302.72,11.27ZM277.66,9h0c.09,0,8.51-1.79,11.13,3.29a17,17,0,0,0-2.88,1.82,16.86,16.86,0,0,0-2.24-1.37,15.12,15.12,0,0,0-6.84-1.65,15.83,15.83,0,0,0-4.21.58l0-.18C273.28,10.44,275.7,9.38,277.66,9ZM312.09,29.3a2,2,0,1,0-3.91.26,27.06,27.06,0,0,1,0,3.91h0a2.25,2.25,0,0,1-.74-1.58,2,2,0,0,0-2.25-1.61,2,2,0,0,0-1.61,2.25,5.78,5.78,0,0,0,2.62,4.32,4.8,4.8,0,0,0,1.4.55,24.36,24.36,0,0,1-2.82,7.17,21,21,0,0,1-2.07.94c1.59-5.67-.71-10.63-2-12.88a13.59,13.59,0,0,1,11.85-6.76,11.78,11.78,0,0,1,3.08.37,25.3,25.3,0,0,1-4.32,12.69A30.86,30.86,0,0,0,312.09,29.3Zm-13.68,18h0Z"/></svg>