<svg id="Capa_1" data-name="Capa 1" xmlns="http://www.w3.org/2000/svg" viewBox="0 0 46.18 46.18"><defs><style>.cls-1{fill:#1d3a28;}</style></defs><title>Mesa de trabajo 6</title><path class="cls-1" d="M943.67,86.21C651.22,199.86,388.73,195.1,201.09,162.82c-182.2-31.34-440-136.26-532.5-150.14C-517-15.14-756.95-8.41-1063.33,80.21v1041H926.49l17.18-1035h0Z"/><path class="cls-1" d="M24.59,15.05c-3.47.27-6.87-.62-5.6-4.91.33-1.11,1.13,1.18,1.39,1.22,2.05.39,8.28.08,12.4.11,1.35,0,3.66,2.85,2,3.19s-6.8.12-10.18.39m4.33,3.18c1.47-.54,2.69-1.61,1.86-2.59s-1.89,1.53-3.12.49c-2.25-1.91-2.32.57-1.34,1.37a3,3,0,0,0,2.6.72M5.22,19.66C9.6,18.95,13,18.42,18.52,17a15.54,15.54,0,0,0-.24-3.68c-4.5-.3-9.06-.37-13.49-.29-2.08,0-1.66,6.94.43,6.59m19.69,2.56a7.5,7.5,0,0,0,2.44-2.48c-1.69-1-2.67-1.89-3-4-1.38-.05-2.55-.08-3.61,0-1.43,2.29,2,6.35,4.17,6.51m2.67.95c4.48-.91,12.5-2.08,13.4-2.14s.57.81,1.88.69c.05-2,.48-4.19-1.75-4.69a41.29,41.29,0,0,0-7.68-1c-2.22,1.6-4.54,4.32-6.73,6.44-.55.54,0,.89.88.73m-4.36,3.89,10.36-3.14c0-.88-2.31-.08-3.17-.1-2.56,0-7.49.36-7.85,3.24,0,.16.49,0,.66,0m-15.58.12C9.07,27,19.3,21.66,20,21.24s-.52-2.68-.89-2.67c-2.57,0-9.47,2.09-12.84,2.67-.34.06-1,.23-1.2.56-.79,1.62,1.19,5.58,2.62,5.37M15.53,31c1.4-.09,7.67-6.79,7.53-7-.51-.81-1.58-2.21-2.55-1.67C16.94,24.25,11.85,26.71,8.2,29c-.51.32.39,1.64,1,1.84,1.21.41,5,.23,6.37.15M42.13.12,4.27,0A4.12,4.12,0,0,0,.12,4.09L0,42a4.13,4.13,0,0,0,4.13,4.12L42,46.18a4.06,4.06,0,0,0,4.08-4.09l.12-37.87A4.05,4.05,0,0,0,42.13.12ZM1.87,1.72a3.37,3.37,0,0,1,2.4-1L42.13.86a3.31,3.31,0,0,1,3.31,3.36L45.35,33.7.77,33.56.86,4.09A3.34,3.34,0,0,1,1.87,1.72Zm3.4,41.93.16-.77.11-.52.34-1.56.75-3.45H8.74l.84,3.07.86-3.07h2.18l.7,3.45.32,1.55.1.5.15.73H11.84l-.55-2.79-.09-.44L10.72,42l-.48,1.65H8.91L8.44,42,8,40.37l-.09.47-.57,2.81Zm11.24-6.4a4.06,4.06,0,0,1,.63-.06h.3l.41,0c1.61.26,2.49,1.52,2.49,3.4v.23l-2.56,0H16S16,41,16,41a1.56,1.56,0,0,0,.06.36,1.09,1.09,0,0,0,.09.22,1.21,1.21,0,0,0,1.17.63h0a1,1,0,0,0,1-.58v0h2a2.79,2.79,0,0,1-2.94,2.13,4.33,4.33,0,0,1-.71-.05,3.17,3.17,0,0,1-1.93-1,3.29,3.29,0,0,1-.73-2.2A3.06,3.06,0,0,1,16.51,37.24Zm-.18-1,1.81-1.6L19.23,36l-1.07.57-.49.26-.36.19-.17.09-.24-.26Zm8.52,5.4,1.24,2.12H23.87l-.29-.59L23,42l-.59,1.1-.29.54H19.88l1.25-2.07.63-1-.64-1.07L19.9,37.38h2.22l.29.55L23,39.05l.6-1.12.29-.56h2.22l-1.24,2.06-.64,1.09Zm1.67-4.22h2l0,5v1.36h-2ZM34,39.24l-.08,0A3.47,3.47,0,0,0,32.45,39a1.4,1.4,0,0,0-1.32,1.44,1.45,1.45,0,0,0,.25.86,2.18,2.18,0,0,0,.35.32,1.73,1.73,0,0,0,.71.27,3.48,3.48,0,0,0,1.44-.16l.08,0,.23.91c.09.34.17.65.21.79a3.51,3.51,0,0,1-1.77.32,4,4,0,0,1-2.45-.82L30,42.81h0a3.24,3.24,0,0,1-.77-1.14h0s-.1-.31-.11-.32a3.64,3.64,0,0,1-.11-.86v0a3.3,3.3,0,0,1,3.6-3.26,4.33,4.33,0,0,1,1.68.29C34.25,37.81,34,39.24,34,39.24Zm.47.27.08-.21a3.32,3.32,0,0,1,3.11-2.07,3.37,3.37,0,0,1,1.83.55,3.31,3.31,0,0,1,1,1,3.18,3.18,0,0,1,.42,1,3.08,3.08,0,0,1,.09.51c0,.1,0,.2,0,.3a3.19,3.19,0,0,1-.61,1.86,3.27,3.27,0,0,1-.36.43l0,0a3.36,3.36,0,0,1-4.72-.07,3.25,3.25,0,0,1-.67-1,3.19,3.19,0,0,1-.23-.8c0-.09,0-.18,0-.26s0-.15,0-.22,0-.09,0-.14A3.2,3.2,0,0,1,34.44,39.5Zm1.76,1.23a1.47,1.47,0,0,1,0-.25,1.39,1.39,0,0,1,0-.21,1.43,1.43,0,0,1,.55-.94,1.41,1.41,0,0,1,.86-.29,1.33,1.33,0,0,1,.32,0,1.42,1.42,0,0,1,.83.55,1.45,1.45,0,0,1-.18,1.91,1.42,1.42,0,0,1-.5.31,1.44,1.44,0,0,1-.47.08,1.41,1.41,0,0,1-1-.43l-.07-.08A1.44,1.44,0,0,1,36.2,40.73ZM16.07,39.58h0a1.14,1.14,0,0,1,.85-.93,1.4,1.4,0,0,1,.36,0,1.2,1.2,0,0,1,1.15,1H16.07ZM13,3.57h1.12V7.49H13V6H11.86V7.48H10.74V3.56h1.12V5.06H13Zm2.6,3h1.49V7.5H14.47V3.58h2.61V4.7H15.59v.37H16.9V6H15.59Zm2.85-.95a.92.92,0,0,0,1,1,1.83,1.83,0,0,0,.61-.1l.16-.07.17.91-.1,0a2.37,2.37,0,0,1-1,.17,1.85,1.85,0,0,1-2-1.95,2,2,0,0,1,2.09-2,2.19,2.19,0,0,1,.94.18l.1.05-.24.92L20,4.7a1.57,1.57,0,0,0-.62-.12A.93.93,0,0,0,18.44,5.62Zm4.43-2H24V7.52H22.86V6H21.75V7.51H20.62V3.59h1.12V5.09h1.12Zm3.32,0a1.87,1.87,0,0,0-1.89,2,1.82,1.82,0,0,0,1.82,2A1.85,1.85,0,0,0,28,5.6,1.8,1.8,0,0,0,26.19,3.64Zm0,.93c.5,0,.72.53.72,1.05S26.7,6.7,26.17,6.7s-.72-.41-.72-1.05S25.64,4.57,26.17,4.57Zm4.34,2H32v.93H29.39V3.62H32V4.75H30.52v.37h1.31v.93H30.51Zm5-3V7.56h-1l-.78-1.44c-.08-.15-.19-.36-.32-.63,0,.28,0,.57,0,.88V7.55H32.37V3.63h1.18l.78,1.43c.09.16.19.38.27.56,0-.22,0-.45,0-.72V3.64Z"/></svg>