<svg id="Capa_1" data-name="Capa 1" xmlns="http://www.w3.org/2000/svg" viewBox="0 0 805 274"><defs><style>.cls-1{fill:#f2f2e6;}.cls-2{fill:#fff;}.cls-3{fill:#395b7b;}</style></defs><title>Mesa de trabajo 6</title><path class="cls-1" d="M796.26,154.72c-5-1.14-9.06,2.43-11.66,4.15.12-.64.24-1.26.35-1.78.22-1.08.43-2.13.6-3.14,1.5-9.14,2.86-16.68,5.52-23.63,2.25-5.87,4.34-13.45.55-20s-11.38-8.54-16.73-9.4C763.2,99,759.55,96.42,758.6,89.31,757.5,81,751,75,743.23,75a16.62,16.62,0,0,0-8.13,2.19c-5.23,2.9-8.43,7.64-8.77,13a15.91,15.91,0,0,0,2.2,9,36.43,36.43,0,0,0-16.36-5c-1-.07-2-.11-2.93-.11-18.08,0-32.41,11.92-37.4,31.12q-.53,2-1,4.07A51.35,51.35,0,0,0,660.68,106c-6.45-8.52-15.14-13-25.13-13a34.17,34.17,0,0,0-3.9.23,26.46,26.46,0,0,1,4.56-8.46c9.5-12.45,15-26,16.42-40.22,1.47-15-5.67-21.73-11.93-24.7a22,22,0,0,0-9.48-2.22c-4.72,0-11.79,1.71-18.67,9.84-6.11,7.22-10.51,16-13.86,27.66a231.8,231.8,0,0,0-8.58,50.66,16.2,16.2,0,0,0-7.18-6.9,32.39,32.39,0,0,0-9-3.76A48,48,0,0,0,561,93.38c-16.74,0-32.76,8.92-42.19,23.35-7.39-16.59-23.5-29.91-38.17-42l-1.46-1.21a20.61,20.61,0,0,0,2.62.16A25.67,25.67,0,0,0,492.89,71a20.7,20.7,0,0,0,2.82-1.64c7.81-5.36,11.47-15.57,9.82-27.37-1.42-22.29-22.47-39.69-48.14-39.69-18,0-34.07,8.63-42.35,21.9l-2.16,3.94a38.47,38.47,0,0,0-2.11,5.46c-1.12,3.17-7.92,25.17,11.47,44.13,5.71,6.15,13.22,12.44,20.49,18.53l2.21,1.85a17.21,17.21,0,0,0-4.16-1.37,23.24,23.24,0,0,0-4.39-.38c-14.42,0-39,9.89-39.63,46.94-.21,12.51,3.68,22.92,11.56,30.94,14.66,14.91,38.1,16.07,44.94,16.07a102,102,0,0,0,42.85-12A59,59,0,0,0,512,165.42c.23.77.47,1.52.74,2.24l.08.2a33.5,33.5,0,0,0,7.83,12l.56.52c5.05,4.6,11.55,7.25,19.3,7.89,1,.08,2.06.13,3.05.13a28.27,28.27,0,0,0,22.32-10.1,18.62,18.62,0,0,0,11.87,7.56,26.16,26.16,0,0,0,5.48.61A21.18,21.18,0,0,0,597.58,181a40.24,40.24,0,0,0,5.21-4.86l.32.4c6.8,8.31,15.23,12.52,25.07,12.52a41.06,41.06,0,0,0,11.92-1.91,76.72,76.72,0,0,0,17.74-4,53.54,53.54,0,0,0,19.44-11.73c7.93,11.85,17.72,17.84,29.2,17.84a33.74,33.74,0,0,0,7.07-.77l.33-.07.33-.1a65.54,65.54,0,0,0,11.09-4.28l.18-.09c1.73-.93,3.51-2,5.28-3.2l.22-.15a37,37,0,0,0,10.35-11.2c1-1.31,2.12-2.88,3.3-4.72,1.48,10.09,7.12,17.48,16.87,22.07a28.1,28.1,0,0,0,12,2.72h0c10.89,0,21.41-6.3,29.63-17.72l.23-.32.51-.85.25-.6a11.24,11.24,0,0,0-7.88-15.27ZM462.45,28.36c6.77,0,10.68,4.68,10.68,13.64,0,5.43-5.95,15.32-10.53,17.18C443.24,39.2,454.79,28.36,462.45,28.36Zm-8.77,137.91c-14.08,0-25.54-9.07-25.54-20.23,0-5.78,3.19-11.32,8.75-15.19l.24-.17a12.5,12.5,0,0,1,3.18-2c5.9-2.24,16-10.42,12.89-21.12a14.62,14.62,0,0,0-2.06-4.21,113.49,113.49,0,0,1,13.44,13.21c5.42,6.7,10.69,13.69,12.62,19.43l.07.2.08.2a26.78,26.78,0,0,1,1.87,9.64C479.22,157.2,467.77,166.27,453.68,166.27Z"/><path class="cls-1" d="M202.23,86c-.59,5.2-.11,9.15,1.47,12.26a35.4,35.4,0,0,0-8.77,1.81,13.85,13.85,0,0,0-5,2.81,26.26,26.26,0,0,0-5.62-3.3,40,40,0,0,0-16-3.29A41.48,41.48,0,0,0,134,114.43c-7.81-15.53-23.1-28.17-37.08-39.72L95.45,73.5a20.61,20.61,0,0,0,2.62.16A25.67,25.67,0,0,0,109.14,71,20.93,20.93,0,0,0,112,69.32c7.81-5.36,11.47-15.57,9.82-27.37C120.36,19.65,99.31,2.25,73.64,2.25c-18,0-34.59,8.33-42.87,21.6h0L29,28a39.37,39.37,0,0,0-2,5.57c-1.12,3.17-7.92,25.18,11.47,44.14C44.19,83.83,51.7,90.12,59,96.21l2.21,1.85A17.21,17.21,0,0,0,57,96.7a23.24,23.24,0,0,0-4.39-.38c-14.42,0-39,9.89-39.63,46.94-.21,12.51,3.68,22.92,11.56,30.94,14.66,14.91,38.1,16.07,44.94,16.07,4.54,0,21.1-1.68,37.16-9.12,9.72-4.51,17.33-10.26,22.75-17.07,5.36,13.65,17.76,22.44,33.15,23.22.85,0,1.7.06,2.54.06a46.6,46.6,0,0,0,26.07-7.79,19.11,19.11,0,0,0,16,7.79,32.85,32.85,0,0,0,9-1.4c6.53-1.88,9.92-6.74,9.29-13.33a53.55,53.55,0,0,1-.07-8.92c.61,6.33,3,17.76,15.52,21.63a28.87,28.87,0,0,0,8.55,1.34c8.11,0,15.59-3.83,21.07-10.77.56-.71,1.32-1.81,2.25-3.21,7.68,10.55,17,15.89,27.84,15.89a33.74,33.74,0,0,0,7.07-.77l.33-.07.32-.1a65.45,65.45,0,0,0,11.09-4.28l.19-.1c1.75-.95,3.53-2,5.27-3.2l.22-.15a37,37,0,0,0,10.35-11.2c1-1.31,2.12-2.88,3.31-4.72,1.48,10.09,7.12,17.49,16.87,22.07a28.12,28.12,0,0,0,12,2.73h0c10.89,0,21.41-6.3,29.63-17.73l.25-.36.5-.85.23-.56A11.24,11.24,0,0,0,390.46,154c-5.37-1.21-11.66,4.15-11.66,4.15.12-.64.24-1.26.35-1.78.22-1.08.43-2.13.6-3.14,1.5-9.14,2.86-16.68,5.52-23.62,2.25-5.87,4.34-13.45.55-20s-11.38-8.54-16.73-9.4c-11.69-1.88-15.34-4.48-16.28-11.58-1.1-8.31-7.57-14.35-15.37-14.35a16.63,16.63,0,0,0-8.13,2.19c-5.23,2.9-8.43,7.64-8.77,13a15.91,15.91,0,0,0,2.2,9,36.45,36.45,0,0,0-16.36-5c-1-.07-2-.11-2.93-.11-18.08,0-32.41,11.92-37.4,31.12-1.09,4.18-2,8.38-2.79,12.52.41-4.71.77-9.53.88-14.37a24.24,24.24,0,0,0-10-20.26,11.64,11.64,0,0,0,1.16-3.72c1.12-8.2-.45-14.93-4.53-19.47-4.42-4.92-9.35-7.41-14.66-7.41a17.56,17.56,0,0,0-10,3.23c-1.22.83-2.43,1.81-3.72,2.85l-1.33,1.07a10.31,10.31,0,0,0-8.19-4.06,10.53,10.53,0,0,0-9.82,7M77.56,27.55c6.77,0,10.68,4.68,10.68,13.64,0,5.43-5.95,15.32-10.53,17.18C58.34,38.39,69.9,27.55,77.56,27.55Zm-8.09,80a16,16,0,0,0-2.06-4.21,113.52,113.52,0,0,1,13.44,13.21c5.42,6.7,10.69,13.69,12.62,19.43l.07.2.08.2A26.77,26.77,0,0,1,95.48,146c0,11.15-11.46,20.23-25.54,20.23S44.4,157.2,44.4,146c0-5.78,3.19-11.32,8.75-15.19,4.15-3.22,13.6-5.14,15.21-11A41.13,41.13,0,0,0,69.47,107.57ZM183.77,153c-1.86,3.59-6.25,9.6-10.47,11.11a3.39,3.39,0,0,1-.79.1,4.07,4.07,0,0,1-1.08-.16c-1.47-.4-2.17-1.72-3.52-6.84a46.69,46.69,0,0,0,17.06-7Q184.43,151.57,183.77,153Z"/><polygon class="cls-2" points="115.06 261.16 120.9 261.16 120.9 249.7 126.53 249.7 126.53 244.25 120.9 244.25 120.9 237.36 128.07 237.36 128.07 231.92 115.06 231.92 115.06 261.16"/><path class="cls-2" d="M157.93,257v-4.28c0-1.91-.25-4.45-2.2-5.94,1.44-1.16,2.16-3,2.16-5.6V239c0-4.79-2.36-7.12-7.2-7.12h-7.32v29.24h5.84v-11.3H150c1.41,0,2.12.43,2.12,2.79V257a9.44,9.44,0,0,0,.42,3.61l.71-.2-.7.23.17.51h6.09l-.43-1A7.66,7.66,0,0,1,157.93,257Zm-8.72-19.69h1.36c.81,0,1.48.16,1.48,2.12v2.74c0,1.84-.69,2.2-1.88,2.2h-1Z"/><polygon class="cls-2" points="173.98 261.16 187.35 261.16 187.35 255.72 179.82 255.72 179.82 249.06 185.81 249.06 185.81 243.62 179.82 243.62 179.82 237.36 187.35 237.36 187.35 231.92 173.98 231.92 173.98 261.16"/><path class="cls-2" d="M212,244.54c-1.88-1.72-3.5-3.2-3.5-5.5,0-1.84.71-2,1.44-2s1.44.15,1.44,2v1.89H217v-1.61c0-4.91-2.61-7.72-7.16-7.72s-7.16,2.81-7.16,7.72c0,4.62,2.67,7.06,5,9.21,1.88,1.72,3.5,3.2,3.5,5.5,0,1.81-.79,2-1.52,2s-1.52-.15-1.52-2v-2.72h-5.6v2.44c0,4.91,2.64,7.72,7.24,7.72s7.24-2.81,7.24-7.72C217.05,249.14,214.38,246.7,212,244.54Z"/><path class="cls-2" d="M239.63,231.6c-4.6,0-7.24,2.81-7.24,7.72v14.44c0,4.91,2.64,7.72,7.24,7.72s7.24-2.81,7.24-7.72v-4.43h-5.6V254c0,1.81-.79,2-1.52,2s-1.52-.15-1.52-2V239c0-1.84.79-2,1.52-2s1.52.15,1.52,2v3.71h5.6v-3.44C246.87,234.42,244.23,231.6,239.63,231.6Z"/><path class="cls-2" d="M271.4,254.07c0,1.81-.75,2-1.52,2s-1.52-.15-1.52-2V231.92h-5.84V253.8c0,4.91,2.64,7.72,7.24,7.72S277,258.7,277,253.8V231.92h-5.6Z"/><path class="cls-2" d="M307.73,257v-4.28c0-1.91-.25-4.45-2.2-5.94,1.44-1.16,2.16-3,2.16-5.6V239c0-4.79-2.36-7.12-7.2-7.12h-7.32v29.24H299v-11.3h.77c1.41,0,2.12.43,2.12,2.79V257a9.44,9.44,0,0,0,.42,3.61l.71-.2-.7.23.17.51h6.09l-.43-1A7.66,7.66,0,0,1,307.73,257ZM299,237.36h1.36c.81,0,1.48.16,1.48,2.12v2.74c0,1.84-.69,2.2-1.88,2.2h-1Z"/><path class="cls-2" d="M327.18,231.92l-4.68,29.24H328l.75-5h4.08l.75,5h5.91l-4.68-29.24Zm2.36,19,1.24-8.31,1.24,8.31Z"/><polygon class="cls-2" points="488.71 243.69 485.54 231.92 478.76 231.92 478.76 261.16 484.16 261.16 484.16 245.88 488.29 261.16 494.08 261.16 494.08 231.92 488.71 231.92 488.71 243.69"/><path class="cls-2" d="M517,231.92l-4.68,29.24h5.51l.75-5h4.08l.75,5h5.91l-4.68-29.24Zm2.36,19,1.24-8.31,1.24,8.31Z"/><polygon class="cls-2" points="546.28 237.36 550.85 237.36 550.85 261.16 556.68 261.16 556.68 237.36 561.25 237.36 561.25 231.92 546.28 231.92 546.28 237.36"/><path class="cls-2" d="M588.2,254.07c0,1.81-.75,2-1.52,2s-1.52-.15-1.52-2V231.92h-5.84V253.8c0,4.91,2.64,7.72,7.24,7.72s7.24-2.81,7.24-7.72V231.92h-5.6Z"/><path class="cls-2" d="M627.7,257v-4.28c0-1.91-.25-4.45-2.2-5.94,1.44-1.16,2.16-3,2.16-5.6V239c0-4.79-2.36-7.12-7.2-7.12h-7.32v29.24H619v-11.3h.77c1.4,0,2.12.43,2.12,2.79V257a9.43,9.43,0,0,0,.42,3.61l.71-.2-.7.23.17.51h6.09l-.43-1A7.66,7.66,0,0,1,627.7,257ZM619,237.36h1.36c.81,0,1.48.16,1.48,2.12v2.74c0,1.84-.69,2.2-1.88,2.2h-1Z"/><path class="cls-2" d="M650.32,231.92l-4.68,29.24h5.51l.75-5H656l.75,5h5.91L658,231.92Zm2.36,19,1.24-8.31,1.24,8.31Z"/><polygon class="cls-2" points="686.74 255.72 686.74 231.92 680.9 231.92 680.9 261.16 693.91 261.16 693.91 255.72 686.74 255.72"/><path class="cls-3" d="M85.35,76.28C73.21,66.06,58.53,54.53,58.53,44.89c0-36.1,38.31-31.84,38.31-3.71,0,13.17-4.79,16.48-7.49,17.3a1.25,1.25,0,0,0-.64,2c2.18,2.69,7.5,7.15,16.73,2.73a12.42,12.42,0,0,0,1.66-1c5.69-3.9,7.23-12,6.12-19.42-.93-17.78-18.29-32-39.58-32C55,10.85,39.41,21.7,35.16,36.31h0s-7.37,19,9.43,35.33h0C56.35,84.37,77.22,98.4,87.54,111.17c6.63,8.2,11.81,15.34,14.08,22.1A35.31,35.31,0,0,1,104.08,146c0,15.92-15.28,28.82-34.13,28.82S35.81,162,35.81,146c0-9,4.84-17,12.43-22.25,2.83-2,3.39-2.46,6.13-3.45a15.81,15.81,0,0,1,2.1-.36A4,4,0,0,0,59,118.75h0c4.78-5,2.8-12.36-3.6-13.61-6.76-1.31-33.16,2.1-33.78,38.27s39.92,38.27,47.9,38.27,61.11-6.81,61.11-46.13C130.62,111.26,105,92.79,85.35,76.28Z"/><path class="cls-3" d="M388.7,162.45a2.63,2.63,0,0,0-1.8.12l0,0-.19.14a2.62,2.62,0,0,0-.64.48c-3.82,3.2-6.51,9.53-12.21,6.16-6.4-3.79-3.55-11.49-2.57-17.46,1.41-8.55,2.9-17.27,6-25.3,4-10.47,2.94-15.87-9.52-17.88C357,107,346.15,103.86,344.28,89.75c-.72-5.44-5.48-8.72-10.81-5.77-6.29,3.49-5.18,9.81-.53,13.23,8,5.89,9.64,13.27,8.78,21.82a121.83,121.83,0,0,1-8.6,27.16c.12-1,.22-1.92.3-2.82h0a42.07,42.07,0,0,0,0-12.6h0c-.07-.43-.13-.85-.23-1.28-3.56-16.2-13-26.41-27.49-27.46-15-1.08-27.16,8.29-31.39,24.6-2,7.83-3.35,15.86-5,23.79l.25,0a1.56,1.56,0,0,0-.42.7c-1.9,6.73-6.44,12.86-12.34,18.24a1.63,1.63,0,0,1-2.69-.89c-1.48-7.49-1-14.06-.51-20.63.68-8.49,1.68-17,1.87-25.46a15.58,15.58,0,0,0-10.72-15.31c-7-2.33-13.27-1-18.27,4.43a33.07,33.07,0,0,0-7.47,14v0l0,.21a43.35,43.35,0,0,0-.92,4.36s0,.05,0,.08l-.4,2a5,5,0,0,1-.85,1v-9.06s0-.07,0-.1c0-.61.08-1.21.1-1.82a30.29,30.29,0,0,0-.1-3.27v-.26h0c-1-10.48-7.78-14.22-19.21-10.42-1.89.63-2.79,1.19-2.36,3.23,1.91,8.91.4,17.9.57,26.85a41.36,41.36,0,0,1-4.36,18.52c-.63,1.24-6.65,12.61-15.72,15.57a12.13,12.13,0,0,1-6.63,0c-7.51-2.07-8.58-9.47-10.32-15.9-.12-.44-.24-.89-.36-1.33-1-3.67.18-5.09,4.24-5.7,9-1.34,17.33-4.56,23.46-11.82,8.78-10.39,6.16-25.2-5.31-30.15A32.69,32.69,0,0,0,138.8,123.3c-5.37,11.35-5.74,23.18-2.3,35,3.6,12.37,13.7,19.78,26.5,20.43a37.75,37.75,0,0,0,29.56-11.46,1.61,1.61,0,0,1,2.74.75c2.23,9.58,8.45,12.61,18.54,9.7,2.59-.75,3.35-1.79,3.11-4.24-1.17-12.14,1.79-23.8,4.54-35.41,1.79-7.56,3.66-15.19,7.88-21.91.85-1.36,1.76-3.07,3.59-2.78,2.13.34,2.32,2.29,2.45,4,0,.43,0,.86,0,1.29-.28,14-2.37,27.87-1.62,41.85.38,7.1,1.8,14.21,9.68,16.65s15.09.09,20.32-6.55c1.57-2,6.15-9.41,9.18-14.3,1.17.6,1.29,2.17,1.91,3.37,8.14,15.75,18.5,22.44,31,19.75a56.7,56.7,0,0,0,9.65-3.7q2.25-1.21,4.57-2.77a28.31,28.31,0,0,0,8.21-9c5.7-7.34,15.73-24,19.82-53.8l.2-.14c8.31,1.83,11,5.49,7.14,14-3.48,7.78-5.65,16.28-7.4,24.67-2.51,12-1.62,23.57,11.22,29.61,10.64,5,22.26-.07,31-12.24l0,0a2.64,2.64,0,0,0-1.7-3.55ZM157.57,141.71c.39-9.41,2-18.44,6-27,1-2.06,1.93-4.51,4.78-4.14,3,.4,2.82,3.38,3.27,5.41,2.91,13.06-1.82,23.8-11.89,27.32A1.61,1.61,0,0,1,157.57,141.71Zm146.09,33.21c-4.54,0-8.21-15.5-8.21-34.62s3.68-34.62,8.21-34.62,8.21,15.5,8.21,34.62S308.2,174.92,303.66,174.92Z"/><path class="cls-3" d="M469.1,76.28c-12.15-10.22-26.83-21.76-26.83-31.39,0-36.1,38.31-31.84,38.31-3.71,0,9.61-2.55,14-5,15.94a3.94,3.94,0,0,0,.5,6.47c2.9,1.64,7.2,2.42,13.07-.39a12.41,12.41,0,0,0,1.66-1c5.69-3.9,7.23-12,6.12-19.42-.93-17.78-18.29-32-39.58-32-18.62,0-34.23,10.84-38.48,25.46h0s-7.37,19,9.43,35.33h0C440.09,84.37,461,98.4,471.28,111.17c6.63,8.2,11.81,15.34,14.08,22.1A35.3,35.3,0,0,1,487.82,146c0,15.92-15.28,28.82-34.13,28.82S419.55,162,419.55,146c0-9,4.84-17,12.43-22.25,2.83-2,3.39-2.46,6.13-3.45a13.52,13.52,0,0,1,2.64-.39,2,2,0,0,0,1.35-.57l.63-.64c4.78-5,2.8-12.36-3.6-13.61-6.76-1.31-33.16,2.1-33.78,38.27s39.92,38.27,47.9,38.27a93.82,93.82,0,0,0,38.62-10.92c12.2-6.9,22.49-17.91,22.49-35.21C514.36,111.26,488.71,92.79,469.1,76.28Z"/><path class="cls-3" d="M796.33,165.07a2.64,2.64,0,0,0-3.63-1.8l0,0-.19.14a2.64,2.64,0,0,0-.64.49c-3.82,3.2-6.51,9.53-12.21,6.15-6.4-3.79-3.55-11.49-2.57-17.46,1.41-8.55,2.9-17.27,6-25.3,4-10.46,2.94-15.87-9.52-17.88-10.67-1.72-21.57-4.83-23.44-18.94-.72-5.44-5.48-8.72-10.81-5.77-6.29,3.49-5.18,9.81-.53,13.23,8,5.89,9.64,13.27,8.78,21.82a121.45,121.45,0,0,1-8.73,27.43c.15-1,.3-2.06.43-3.09a61.8,61.8,0,0,0,0-12.6c-.07-.43-.13-.85-.23-1.28-3.56-16.2-13-26.41-27.49-27.45-15-1.08-27.16,8.29-31.39,24.6-1.82,7-3.07,14.13-4.48,21.23-3.34,12.37-13.49,18.72-22.77,22l1.72-3.23c9.53-19.18,12.72-38.22-.81-56.08-7.85-10.37-19-12-31.09-6.6-1.65-9.92,1-17.62,6.64-25.05,8-10.52,13.39-22.46,14.7-35.84.65-6.58-.36-12.92-7.05-16.09-7.29-3.46-13.3,0-17.9,5.4-6,7.09-9.59,15.53-12.16,24.49a228.06,228.06,0,0,0-8.12,78.79c.14,2.06.29,4.13.48,6.19a39,39,0,0,1,.16,3.95,57,57,0,0,0,1.47,6.88c-3.53,8.91-7.95,13.81-10.72,16.21a5,5,0,0,1-3.83.6c-6.72-1.45-3.2-9.24-2.51-13.8.86-5.7,1.28-11.55,2.22-17.28,1-6.06.59-14.37-5.09-15.35-9.29-1.41-15.2-.35-15.19,12,0,10.46-4.26,20.72-9.46,30.13-1.64,3-3.54,6-7.64,5.53s-5.32-3.7-5.77-7.25c-2.07-16.26-.06-32,8.11-46.27,3.12-5.46,8.07-11.09,13.36-1.21,1.27,2.38,2.71,3.49,4.25,3.91v0l.26.05.52.09c1.78.27,6.31.65,10.16-1.51,4.91-2.76,5.13-10.06-1-12.76h0a23.43,23.43,0,0,0-7-3c-17.65-4.94-36.42,3-46.27,19a49.66,49.66,0,0,0-5.85,15.08,73.68,73.68,0,0,0-.74,17.42,42.86,42.86,0,0,0,1.08,6.52,32.66,32.66,0,0,0,1,3.26,24.87,24.87,0,0,0,5.78,9l.36.33c3.53,3.23,8.19,5.21,14.25,5.71,15.42,1.26,21.2-9.79,27-21.88,2.08,8.41,1.92,17.61,11.3,19.62,5.63,1.21,9.46-.35,12.51-3.11,2.68-2,7.2-6.32,11.21-14.29a63.94,63.94,0,0,0,3.65-8.94h0a64,64,0,0,1-3.66,9,49.6,49.6,0,0,0,4.49,8.35q1,1.39,2,2.62c7.37,9,16.63,11.42,28.41,7.65-1.57.14-2.53.16-2.65.16l-.08-4.71c-.86,1.28-1.78,2-2.74,2-4.54,0-8.21-15.5-8.21-34.62S628.16,107,632.69,107s8.21,15.5,8.21,34.62c0,14.81-2.21,27.43-5.31,32.38h0l-.13.2.08,4.71c.12,0,1.08,0,2.65-.16a68.89,68.89,0,0,0,16.77-3.63c10.7-3.83,18.44-10.1,22.77-18.33,2.23.06,2.24,2.1,3,3.6,8.14,15.75,18.5,22.45,31,19.75a56.71,56.71,0,0,0,9.65-3.7q2.25-1.21,4.57-2.77a28.31,28.31,0,0,0,8.21-9c5.7-7.34,15.73-24,19.82-53.8l.2-.14c8.31,1.83,11,5.49,7.14,14-3.48,7.78-5.65,16.28-7.4,24.67-2.51,12-1.62,23.57,11.22,29.61,10.64,5,22.26-.07,31-12.24l0,0A2.64,2.64,0,0,0,796.33,165.07ZM634.92,35c9.25,3.75-4,27.53-9.42,34.62a1,1,0,0,1-1.71-.6C624.13,60.22,625.93,31.4,634.92,35Zm74.34,139.87c-4.54,0-8.21-15.5-8.21-34.62s3.68-34.62,8.21-34.62,8.21,15.5,8.21,34.62S713.79,174.92,709.26,174.92Z"/><path class="cls-3" d="M225.52,99.34c4.76-3.36,8.36-6.83,11.66-6.83,1.86,0,4.31,3.27,6.09,6.12,1.07,1.71,3.21,1,3.51-1.13.54-4,.53-9.29-2.41-12.57-5.19-5.77-9.79-5.28-13.41-2.81s-9.65,8.73-12.65,7.09c-1.33-.73-2.7-2.69-3.8-4.65s-3.24-1.24-3.57,1c-.48,3.24-.67,7,.53,9.07C213.85,98.64,220.76,102.7,225.52,99.34Z"/><path class="cls-2" d="M432.67,243.74c.31-6.11-.79-10.69-3.28-13.64a9.69,9.69,0,0,0-6.52-3.43A25,25,0,0,0,407,221.18a25.36,25.36,0,0,0-15.54,5.25c-1.59.38-6.15,1.74-7.43,4.91a2,2,0,0,0-.11.39l-.52,2.93c-.9.45-2.61,1.26-4.35,2.05a2,2,0,0,0-1.15,1.78c0,13.33,3.05,22.48,9.34,28,6.13,5.35,14.21,6,19.75,6,9.05,0,16.11-2.73,21-8.12,4.09-4.54,6.4-10.84,6.66-18.21C434.68,244.8,433.77,244.17,432.67,243.74ZM413,268a34.26,34.26,0,0,1-6,.5,41.25,41.25,0,0,1-7.23-.56,24.4,24.4,0,0,1-4.45-6.33q-.15-.31-.28-.62c2.23-1.16,5.48-3.85,6.11-9.85a2,2,0,1,0-3.9-.41c-.39,3.67-2.07,5.51-3.4,6.41a14.1,14.1,0,0,1,2.31-10.45,2,2,0,0,0-.56-2.71,2,2,0,0,0-2.71.56,20.17,20.17,0,0,0-1.93,3.72,5.2,5.2,0,0,1,.36-4.55,2,2,0,1,0-3.47-1.83,8.93,8.93,0,0,0,0,8.92,11.09,11.09,0,0,0,1.94,2.49,19.42,19.42,0,0,0,2,10,26,26,0,0,0,1.33,2.44,17.06,17.06,0,0,1-3.28-2.24c-5.2-4.53-7.81-12.3-8-23.75a36.18,36.18,0,0,0,4.33-2.15,11.85,11.85,0,0,1,10.83-.2A15.73,15.73,0,0,1,404.91,248a2,2,0,0,0,1,1.41,15.57,15.57,0,0,1,5.9,5.41C412,255.09,416.48,261.61,413,268Zm15.79-24.83c-.4,0-.81,0-1.23,0a17.69,17.69,0,0,0-14.24,7.19,17.59,17.59,0,0,0-4.73-4,20.55,20.55,0,0,0-4.59-8.41,13.63,13.63,0,0,1,8.24-2.41,14.79,14.79,0,0,1,6.14,1.33,2,2,0,0,0,2.71-1.31c.11-.44.21-.85.3-1.27a7.8,7.8,0,0,1,1.47-3.66,5.75,5.75,0,0,1,3.56,2C428.15,234.71,429,238.34,428.77,243.16Zm-11-10.71a18.74,18.74,0,0,0-5.56-.84,20.53,20.53,0,0,0-4.61.5,10.22,10.22,0,0,0-7.71-5.83A21.57,21.57,0,0,1,407,225.1a20.85,20.85,0,0,1,12.26,3.76A10.51,10.51,0,0,0,417.78,232.45Zm-25.07-2.29h0c.09,0,8.51-1.79,11.13,3.29a17,17,0,0,0-2.88,1.82,16.86,16.86,0,0,0-2.24-1.37,15.12,15.12,0,0,0-6.84-1.65,15.83,15.83,0,0,0-4.21.58l0-.18C388.34,231.62,390.75,230.56,392.72,230.17Zm34.43,20.31a2,2,0,1,0-3.91.26,27.06,27.06,0,0,1,0,3.91h0a2.25,2.25,0,0,1-.74-1.58,2,2,0,0,0-2.25-1.61,2,2,0,0,0-1.61,2.25,5.78,5.78,0,0,0,2.62,4.32,4.8,4.8,0,0,0,1.4.55,24.36,24.36,0,0,1-2.82,7.17,21,21,0,0,1-2.07.94c1.59-5.67-.71-10.63-2-12.88A13.59,13.59,0,0,1,427.54,247a11.78,11.78,0,0,1,3.08.37,25.3,25.3,0,0,1-4.32,12.69A30.86,30.86,0,0,0,427.15,250.48Zm-13.68,18h0Z"/></svg>