<svg id="Capa_1" data-name="Capa 1" xmlns="http://www.w3.org/2000/svg" viewBox="0 0 46.34 44.16"><defs><style>.cls-1{fill:#1d3a28;}</style></defs><title>Mesa de trabajo 7</title><path class="cls-1" d="M838.88,85.2C546.43,198.85,283.95,194.09,96.3,161.81c-182.2-31.34-440-136.26-532.5-150.14C-621.82-16.15-861.74-9.42-1168.12,79.2v1041H821.71l17.18-1035h0Z"/><path class="cls-1" d="M45.94,29.44l-.45-.79v0L42,22.91a1.21,1.21,0,0,0-1-.64,2.14,2.14,0,0,0-.81.2l-6,3.63a1.18,1.18,0,0,0-.39,1.65l1.82,3H31.41V28.34a1.22,1.22,0,0,0-.75-1.13,1.2,1.2,0,0,0-.47-.09,1.22,1.22,0,0,0-.86.35L22,34.75a1.22,1.22,0,0,0,0,1.72l7.29,7.33a1.22,1.22,0,0,0,.86.36,1.2,1.2,0,0,0,.47-.09,1.22,1.22,0,0,0,.75-1.12V40.51l9.74,0a1.2,1.2,0,0,0,1.06-.61L46,32.49A3.2,3.2,0,0,0,45.94,29.44Z"/><path class="cls-1" d="M21.81,13.06l1.87-3,1.87,3.69-2.17,1.1a1.22,1.22,0,0,0,.17,2.24l9.82,3.22a1.22,1.22,0,0,0,1.54-.78l3.22-9.82a1.22,1.22,0,0,0-1.71-1.47l-2.18,1.1L29.84.67a1.2,1.2,0,0,0-1-.67H20.47a3.19,3.19,0,0,0-2.7,1.41l-.5.76,0,0L13.73,7.88a1.21,1.21,0,0,0-.09,1.22,2.14,2.14,0,0,0,.54.63l6,3.74A1.18,1.18,0,0,0,21.81,13.06Z"/><path class="cls-1" d="M15.07,17.16a1.22,1.22,0,0,0-1.47-.9l-10,2.41a1.22,1.22,0,0,0-.75.55,1.21,1.21,0,0,0-.16.44A1.22,1.22,0,0,0,3.2,20.9l2.08,1.27L.18,30.48a1.2,1.2,0,0,0,0,1.22l4.39,7.1a3.19,3.19,0,0,0,2.62,1.56l.92,0h0l6.73,0a1.21,1.21,0,0,0,1.09-.56,2.14,2.14,0,0,0,.25-.8l0-7.06A1.19,1.19,0,0,0,15,30.8H11.42l2.16-3.53h0l2.08,1.27A1.22,1.22,0,0,0,17,28.48a1.23,1.23,0,0,0,.32-.35,1.22,1.22,0,0,0,.15-.92Z"/><path class="cls-1" d="M23.78,23.83h1.07v.74H23.78v2.54h-1.4V24.56H19.84v-.74l3.63-4.42h.32Zm-3.44,0h2V21.28Z"/></svg>