<svg id="Capa_1" data-name="Capa 1" xmlns="http://www.w3.org/2000/svg" viewBox="0 0 55.59 55.59"><defs><style>.cls-1{fill:#1d3a28;}</style></defs><title>Mesa de trabajo 9</title><path class="cls-1" d="M651.39,90.91C358.93,204.56,96.45,199.8-91.19,167.53c-182.2-31.34-440-136.26-532.5-150.14C-809.32-10.44-1049.23-3.7-1355.61,84.91v1041H634.21l17.18-1035h0Z"/><path class="cls-1" d="M5.27,24.25a.06.06,0,0,1-.08.05L3,23.83a.06.06,0,0,1-.05-.08l.29-1.34a.06.06,0,0,1,.08-.05l.24.05a.06.06,0,0,1,.05.09l-.2.95.62.13.16-.73a.06.06,0,0,1,.08-.05l.23,0a.06.06,0,0,1,.05.08l-.16.73.6.13.2-.95a.06.06,0,0,1,.08-.05l.24.05a.06.06,0,0,1,.05.08Z"/><path class="cls-1" d="M3.45,21.77a.06.06,0,0,1,0-.09l.1-.3a.15.15,0,0,1,.15-.11l1.53-.19h0L4.07,20a.15.15,0,0,1,0-.18l.09-.27a.06.06,0,0,1,.09,0l2.14.71a.06.06,0,0,1,0,.09l-.1.31a.06.06,0,0,1-.09,0l-1.35-.44.84.82a.22.22,0,0,1,.05.25.24.24,0,0,1-.19.17l-1.15.14L5.74,22a.06.06,0,0,1,0,.09l-.11.32a.06.06,0,0,1-.09,0Z"/><path class="cls-1" d="M6.6,19.77a.06.06,0,0,1-.09,0l-2.07-.92a.06.06,0,0,1,0-.09l.31-.7c.24-.53.63-.75,1.13-.52a.77.77,0,0,1,.37,1.12L6,19.08l.65.29a.06.06,0,0,1,0,.09Zm-.76-1.15c.13-.29.06-.5-.19-.61s-.46,0-.6.28l-.13.29.78.35Z"/><path class="cls-1" d="M8.35,16.17s0,0,0,.08a.58.58,0,0,1-.07.18c-.36.64-1.06,0-1.31.45l-.12.22.72.41a.06.06,0,0,1,0,.09l-.17.29a.06.06,0,0,1-.09,0l-2-1.11a.06.06,0,0,1,0-.1L5.75,16c.29-.51.63-.68,1.1-.42a.63.63,0,0,1,.33.66c.3-.12.71.1.87-.17l0,0s0,0,.08,0Zm-1.63.48c.14-.25.13-.49-.09-.62s-.42,0-.56.21l-.17.31.66.37Z"/><path class="cls-1" d="M8.59,16a.06.06,0,0,1-.1,0L6.63,14.7a.06.06,0,0,1,0-.1l.78-1.14a.06.06,0,0,1,.1,0l.2.14a.07.07,0,0,1,0,.1l-.55.8.53.36.42-.62a.06.06,0,0,1,.1,0l.2.14a.06.06,0,0,1,0,.1L8,15.06l.51.35.55-.8a.06.06,0,0,1,.1,0l.2.14a.06.06,0,0,1,0,.1Z"/><path class="cls-1" d="M9.12,12.28c0,.06,0,.08-.06.07a.58.58,0,0,0-.51.24c-.16.19-.16.38,0,.48.4.32.93-.9,1.64-.32.27.22.37.63,0,1.13a1,1,0,0,1-.94.46.07.07,0,0,1-.06-.07l0-.25s0-.08.06-.08a.83.83,0,0,0,.66-.31c.16-.2.17-.38,0-.49-.44-.36-.93.91-1.66.33a.75.75,0,0,1,0-1.1A.94.94,0,0,1,9.08,12s.06,0,.06.08Z"/><path class="cls-1" d="M11.37,11.6l-.59.61.25.49s0,.07,0,.11l-.25.25a.06.06,0,0,1-.1,0L9.7,11c0-.1,0-.16,0-.23l.16-.16c.07-.07.13-.07.23,0l2.1.94a.06.06,0,0,1,0,.1l-.25.25s-.07,0-.11,0Zm-.76.26.42-.43L10.19,11Z"/><path class="cls-1" d="M12.91,8.68c0,.06,0,.07-.07.06a.58.58,0,0,0-.55.13c-.2.16-.23.34-.13.47.32.4,1.09-.69,1.67,0,.22.27.23.7-.26,1.1a1,1,0,0,1-1,.25.07.07,0,0,1,0-.08l0-.24s0-.07.07-.06a.83.83,0,0,0,.71-.16c.2-.16.25-.34.13-.47-.36-.44-1.1.7-1.69,0A.75.75,0,0,1,12,8.59a.93.93,0,0,1,.93-.24s.06,0,0,.09Z"/><path class="cls-1" d="M13.78,8.74a1.08,1.08,0,1,1,1.79-1.19,1.08,1.08,0,1,1-1.79,1.19Zm1.38-.92c-.33-.5-.67-.52-.93-.35s-.37.5,0,1,.67.53.93.35S15.48,8.32,15.15,7.82Z"/><path class="cls-1" d="M17.91,7.09c.07,0,.08.06.07.1a1,1,0,0,1-.55.73,1.07,1.07,0,0,1-1.55-.55,1,1,0,0,1,.37-1.57.84.84,0,0,1,1.17.26s0,.06,0,.1l-.24.17s-.08,0-.1,0a.47.47,0,0,0-.62-.16c-.29.15-.39.49-.13,1s.65.56,1,.4a.73.73,0,0,0,.33-.47s0-.08.09-.06Z"/><path class="cls-1" d="M18.88,7.12a.06.06,0,0,1,0,.09l-.31.14a.06.06,0,0,1-.09,0l-.93-2.06a.06.06,0,0,1,0-.09L17.87,5a.06.06,0,0,1,.09,0Z"/><path class="cls-1" d="M20.34,6l-.8.3v.55s0,.08,0,.1l-.33.12A.06.06,0,0,1,19.1,7V4.68c0-.11,0-.17.11-.2l.21-.08c.09,0,.14,0,.22.08l1.5,1.75a.06.06,0,0,1,0,.1l-.33.12c-.05,0-.07,0-.1,0Zm-.8-.09.56-.21L19.51,5Z"/><path class="cls-1" d="M21.78,5.76l1-.26a.06.06,0,0,1,.08.05l.07.23a.06.06,0,0,1,0,.08l-1.34.37a.06.06,0,0,1-.08,0L20.81,4a.06.06,0,0,1,0-.08l.32-.09a.06.06,0,0,1,.08,0Z"/><path class="cls-1" d="M22.76,3.48a.06.06,0,0,1,.06-.08l.31-.05a.15.15,0,0,1,.17.08l.89,1.26h0l.43-1.49a.15.15,0,0,1,.14-.13L25,3a.06.06,0,0,1,.08.06l.38,2.23a.06.06,0,0,1-.06.08l-.32.06A.06.06,0,0,1,25,5.38L24.8,4l-.33,1.13a.22.22,0,0,1-.2.16A.24.24,0,0,1,24,5.19l-.66-1,.24,1.39a.06.06,0,0,1-.06.08l-.33.06a.06.06,0,0,1-.08-.06Z"/><path class="cls-1" d="M26,5.35a.06.06,0,0,1-.07-.06L25.79,3A.06.06,0,0,1,25.85,3l1.37-.09a.06.06,0,0,1,.07.06l0,.24a.07.07,0,0,1-.07.08l-1,.06,0,.64.75,0a.06.06,0,0,1,.07.06l0,.24a.06.06,0,0,1-.07.07l-.75,0,0,.61,1-.06a.06.06,0,0,1,.07.07l0,.24a.06.06,0,0,1-.07.07Z"/><path class="cls-1" d="M29.24,5.26a.18.18,0,0,1-.17-.12l-.8-1.42,0,1.45a.06.06,0,0,1-.07.07h-.33a.06.06,0,0,1-.07-.07l0-2.26a.06.06,0,0,1,.07-.07h.32c.09,0,.13.06.17.13l.8,1.46,0-1.51a.06.06,0,0,1,.07-.07h.33a.06.06,0,0,1,.07.07l0,2.26a.06.06,0,0,1-.07.07Z"/><path class="cls-1" d="M32.17,3.14a.06.06,0,0,1,.06.08l0,.24a.07.07,0,0,1-.08.06l-.71-.08-.22,1.93a.06.06,0,0,1-.08.06l-.33,0a.06.06,0,0,1-.06-.08l.22-1.93L30.2,3.3a.07.07,0,0,1-.06-.08l0-.24a.06.06,0,0,1,.08-.06Z"/><path class="cls-1" d="M32.27,5.58a.06.06,0,0,1-.05-.08l.44-2.21a.06.06,0,0,1,.08-.05l1.34.27a.06.06,0,0,1,.05.08l0,.24a.06.06,0,0,1-.08.06l-.95-.19-.13.62.73.15a.06.06,0,0,1,.05.08l0,.23a.06.06,0,0,1-.08.05l-.73-.15-.12.6.95.19a.06.06,0,0,1,.05.08l0,.24a.07.07,0,0,1-.08.05Z"/><path class="cls-1" d="M36.63,6.69s0,0-.07,0a.59.59,0,0,1-.19,0c-.7-.23-.21-1-.69-1.19l-.24-.08-.26.79a.06.06,0,0,1-.09,0l-.32-.11a.06.06,0,0,1,0-.09l.71-2.14a.06.06,0,0,1,.09,0l.73.24c.56.18.79.49.62,1a.63.63,0,0,1-.58.45c.17.27,0,.71.33.81l0,0s0,0,0,.07Zm-.79-1.5c.27.09.51,0,.59-.2s0-.42-.31-.51l-.33-.11-.24.72Z"/><path class="cls-1" d="M36.9,6.89a.06.06,0,0,1,0-.09l.89-2.07a.06.06,0,0,1,.09,0l1.26.54a.06.06,0,0,1,0,.09l-.1.22a.07.07,0,0,1-.1,0l-.89-.38-.25.58.69.3a.06.06,0,0,1,0,.09l-.09.22a.06.06,0,0,1-.09,0l-.68-.29-.24.56.89.38a.06.06,0,0,1,0,.09l-.1.22a.06.06,0,0,1-.09,0Z"/><path class="cls-1" d="M40.6,6.71c-.06,0-.08,0-.08,0a.58.58,0,0,0-.33-.45c-.22-.12-.4-.08-.48.06-.24.45,1.06.74.62,1.55-.16.3-.55.48-1.11.18a1,1,0,0,1-.63-.84.07.07,0,0,1,.06-.08L38.89,7a.06.06,0,0,1,.09,0,.83.83,0,0,0,.42.59c.22.12.41.1.49-.06.27-.5-1.07-.74-.63-1.56a.75.75,0,0,1,1.08-.19.94.94,0,0,1,.58.77s0,.06-.07.07Z"/><path class="cls-1" d="M40.36,8.61a.06.06,0,0,1,0-.1l1.23-1.89a.06.06,0,0,1,.1,0l.64.42c.49.32.64.74.34,1.2a.77.77,0,0,1-1.17.19l-.35-.23-.39.6a.06.06,0,0,1-.1,0ZM41.62,8c.27.17.48.14.63-.09a.43.43,0,0,0-.18-.64l-.27-.17-.47.71Z"/><path class="cls-1" d="M42.68,8.7A1.08,1.08,0,1,1,44.35,10,1.08,1.08,0,1,1,42.68,8.7Zm1.29,1c.37-.47.29-.8,0-1s-.59-.2-1,.27-.29.8,0,1S43.6,10.19,44,9.73Z"/><path class="cls-1" d="M44.92,12.23a.18.18,0,0,1,0-.2l.4-1.58-1,1a.06.06,0,0,1-.1,0l-.24-.23a.06.06,0,0,1,0-.1l1.58-1.61a.06.06,0,0,1,.1,0l.23.23a.19.19,0,0,1,0,.21l-.43,1.61,1.05-1.08a.06.06,0,0,1,.1,0l.24.23a.06.06,0,0,1,0,.1l-1.58,1.61a.06.06,0,0,1-.1,0Z"/><path class="cls-1" d="M46.79,13.42l-.55-.64-.51.2s-.07,0-.11,0l-.23-.27a.06.06,0,0,1,0-.09l2.17-.78c.11,0,.16,0,.22,0L48,12c.06.07.06.13,0,.23l-1.13,2a.06.06,0,0,1-.1,0L46.5,14s0-.07,0-.11Zm-.19-.78.39.46.46-.79Z"/><path class="cls-1" d="M47,14.6a.06.06,0,0,1,0-.1l1.86-1.3a.06.06,0,0,1,.1,0l.48.69c.28.4.29.74-.08,1s-.55.08-.62,0h0a.57.57,0,0,1-.18.78c-.41.29-.78.06-1-.3Zm.8.46c.14.19.3.3.52.14s.18-.35,0-.55l-.24-.35-.56.39Zm.8-.63c.15.21.3.21.45.1s.18-.28,0-.51l-.18-.26-.51.35Z"/><path class="cls-1" d="M48.7,16.52l.49.85a.06.06,0,0,1,0,.09l-.21.12a.06.06,0,0,1-.09,0l-.7-1.2a.06.06,0,0,1,0-.09l1.95-1.13a.06.06,0,0,1,.09,0l.17.29a.06.06,0,0,1,0,.09Z"/><path class="cls-1" d="M49.05,17.92a.06.06,0,0,1,0-.09l2-1a.06.06,0,0,1,.09,0l.59,1.24a.06.06,0,0,1,0,.09l-.22.1a.06.06,0,0,1-.09,0L51,17.42l-.57.27.32.68a.06.06,0,0,1,0,.09l-.22.1a.06.06,0,0,1-.09,0l-.32-.67-.56.27L50,19a.06.06,0,0,1,0,.09l-.22.1a.06.06,0,0,1-.09,0Z"/><path class="cls-1" d="M27.73,55.59c-.7,0-1.4,0-2.08-.08A27.79,27.79,0,0,1,27.86,0c.7,0,1.4,0,2.08.08a27.79,27.79,0,0,1-2.21,55.5ZM27.86.9a26.9,26.9,0,0,0-2.13,53.72c.66.05,1.34.08,2,.08A26.9,26.9,0,0,0,29.87,1C29.21.93,28.53.9,27.86.9Zm-.1,47.62q-.77,0-1.56-.06A20.72,20.72,0,0,1,27.84,7.07h0q.77,0,1.56.06a20.72,20.72,0,0,1-1.64,41.38ZM27.83,8A19.89,19.89,0,0,0,8,26.27,19.82,19.82,0,1,0,29.32,8c-.5,0-1-.06-1.49-.06Z"/><path class="cls-1" d="M28.95,12.88a15,15,0,0,0-3.67,29.66l.76-9.8-3-2.15a.79.79,0,0,1-.21.17,1.14,1.14,0,0,1-1.13.84,1,1,0,0,1-.43-.14l-.12.11a.69.69,0,0,1-.84,0l-.07-.06a.56.56,0,0,1-.28.05.56.56,0,0,1-.36-.17h0a.66.66,0,0,1-.73-.06.66.66,0,0,1-.27,0,.68.68,0,0,1-.43-.21.83.83,0,0,1-.18-.29,1.05,1.05,0,0,1-.41-.39,1.29,1.29,0,0,1-.17-.76,1.32,1.32,0,0,1,.12-.46.91.91,0,0,1-.16-.6.82.82,0,0,1,.7-.79.85.85,0,0,1,.25-.34,1,1,0,0,1,0-.15A.84.84,0,0,1,19,26.6a1,1,0,0,1,1-.66.93.93,0,0,1,.51.2h0a.66.66,0,0,1,.28.08.7.7,0,0,1,.52-.18.68.68,0,0,1,.37.15.92.92,0,0,1,.47-.09,1,1,0,0,1,.7.4,1.25,1.25,0,0,1,.24.85.88.88,0,0,1,.26.61,1.44,1.44,0,0,1,.23.41,1.61,1.61,0,0,1-.07,1.24,1.47,1.47,0,0,1-.21.32.94.94,0,0,1,0,.1l2.89.74.32-4.18L24.23,25a.48.48,0,0,1-.43.27.45.45,0,0,1-.19-.06l-.06.05a.31.31,0,0,1-.38,0l0,0a.25.25,0,0,1-.13,0,.26.26,0,0,1-.16-.08h0a.3.3,0,0,1-.33,0l-.12,0a.31.31,0,0,1-.2-.09.38.38,0,0,1-.08-.13.48.48,0,0,1-.19-.18.58.58,0,0,1-.08-.34.6.6,0,0,1,.05-.21.41.41,0,0,1-.07-.27.37.37,0,0,1,.32-.36.38.38,0,0,1,.11-.15.44.44,0,0,1,0-.07.38.38,0,0,1,.28-.35.47.47,0,0,1,.46-.3.42.42,0,0,1,.23.09h0a.3.3,0,0,1,.12,0,.31.31,0,0,1,.23-.08.31.31,0,0,1,.17.07.42.42,0,0,1,.21,0,.44.44,0,0,1,.32.18.57.57,0,0,1,.11.38.4.4,0,0,1,.12.28.65.65,0,0,1,.1.19.73.73,0,0,1,0,.3.71.71,0,0,1-.07.26.66.66,0,0,1-.1.14.43.43,0,0,1,0,0,.42.42,0,0,1-.09.23h0l2.2.57.47-6.1.48,4.56.06-.81,3.44-.74.63-1.4-.07,1.28,1.92-.41-5.93,2.58.14,1.35h.06l0,.3.1.9,5.71-.47s0-.06,0-.09A1.61,1.61,0,0,1,33.68,25a1.44,1.44,0,0,1,.29-.37.88.88,0,0,1,.35-.57,1.26,1.26,0,0,1,.37-.8,1,1,0,0,1,.75-.29.92.92,0,0,1,.45.16.67.67,0,0,1,.39-.09.7.7,0,0,1,.48.26.66.66,0,0,1,.29,0h0a.93.93,0,0,1,.54-.12,1,1,0,0,1,.9.81.84.84,0,0,1,.49.86A1,1,0,0,1,39,25a.85.85,0,0,1,.2.38.82.82,0,0,1,.58.89.92.92,0,0,1-.25.56,1.32,1.32,0,0,1,0,.47,1.29,1.29,0,0,1-.29.72,1.05,1.05,0,0,1-.47.33.83.83,0,0,1-.23.26.68.68,0,0,1-.46.14.66.66,0,0,1-.26-.08.66.66,0,0,1-.73-.05h0a.56.56,0,0,1-.38.11.56.56,0,0,1-.27-.09l-.07,0a.69.69,0,0,1-.83-.13l-.1-.13a1,1,0,0,1-.45.07,1.14,1.14,0,0,1-1-1,.78.78,0,0,1-.21-.24.92.92,0,0,1-.11-.52l-5.64,1.7.45,4.21,4-.39s0,0,0,0v0a.67.67,0,0,1-.07-.16.73.73,0,0,1,.06-.56.65.65,0,0,1,.13-.17.4.4,0,0,1,.16-.26.57.57,0,0,1,.17-.36.44.44,0,0,1,.34-.13.42.42,0,0,1,.2.07.31.31,0,0,1,.18,0,.31.31,0,0,1,.22.12l.13,0h0a.42.42,0,0,1,.24-.06.47.47,0,0,1,.41.36.38.38,0,0,1,.22.39.45.45,0,0,1,0,.07.39.39,0,0,1,.09.17.37.37,0,0,1,.26.4.41.41,0,0,1-.11.26.6.6,0,0,1,0,.21.58.58,0,0,1-.13.33.48.48,0,0,1-.21.15.37.37,0,0,1-.1.12.31.31,0,0,1-.21.06l-.12,0a.3.3,0,0,1-.33,0h0a.26.26,0,0,1-.17.05.25.25,0,0,1-.12,0l0,0a.31.31,0,0,1-.17,0,.31.31,0,0,1-.2-.1l0-.06a.45.45,0,0,1-.2,0,.51.51,0,0,1-.45-.45h0l-3.92,2,.86,8.09a15,15,0,0,0-.62-29.77Z"/><path class="cls-1" d="M12.42,46.62c0,.07,0,.1-.07.11a1.07,1.07,0,0,1-.91-.29,1.12,1.12,0,0,1,0-1.72,1.09,1.09,0,0,1,1.68-.18.88.88,0,0,1,.15,1.24s-.06,0-.1,0l-.25-.17c-.05,0,0-.07,0-.1a.49.49,0,0,0-.06-.66c-.25-.23-.62-.22-1,.2s-.33.84-.07,1.08a.76.76,0,0,0,.58.17c.05,0,.09,0,.09.07Z"/><path class="cls-1" d="M13.22,46.34A1.13,1.13,0,1,1,15,47.67a1.13,1.13,0,1,1-1.79-1.33Zm1.38,1c.37-.5.28-.85,0-1s-.62-.19-1,.32-.28.84,0,1S14.23,47.86,14.6,47.37Z"/><path class="cls-1" d="M16.06,49.77a.19.19,0,0,1-.09-.19V47.87l-.77,1.31a.06.06,0,0,1-.1,0L14.8,49a.06.06,0,0,1,0-.1l1.2-2a.06.06,0,0,1,.1,0l.29.17a.2.2,0,0,1,.08.2l0,1.74.81-1.36a.06.06,0,0,1,.1,0l.3.18a.06.06,0,0,1,0,.1l-1.2,2a.06.06,0,0,1-.1,0Z"/><path class="cls-1" d="M17.87,50.69a.07.07,0,0,1,0-.09l.93-2.18a.06.06,0,0,1,.09,0l1.32.56a.07.07,0,0,1,0,.09l-.1.23a.07.07,0,0,1-.1,0l-.93-.4-.26.61.72.31a.06.06,0,0,1,0,.09l-.1.23a.07.07,0,0,1-.1,0l-.72-.31-.25.59.94.4a.06.06,0,0,1,0,.1l-.1.23a.07.07,0,0,1-.1,0Z"/><path class="cls-1" d="M20.37,51.23l1,.32a.07.07,0,0,1,0,.09l-.08.24a.07.07,0,0,1-.09,0l-1.38-.45a.06.06,0,0,1,0-.09l.72-2.24a.06.06,0,0,1,.09,0l.33.11a.06.06,0,0,1,0,.09Z"/><path class="cls-1" d="M22.89,49.88a.06.06,0,0,1,.08-.06l.32.06a.15.15,0,0,1,.14.13l.42,1.55h0l.95-1.31a.15.15,0,0,1,.18-.08l.29.05a.06.06,0,0,1,.06.08l-.41,2.32a.06.06,0,0,1-.08.06l-.33-.06a.06.06,0,0,1-.06-.08l.26-1.45-.72,1a.23.23,0,0,1-.25.09.24.24,0,0,1-.2-.17l-.31-1.17L23,52.29a.06.06,0,0,1-.08.06l-.34-.06a.07.07,0,0,1-.06-.08Z"/><path class="cls-1" d="M25.71,52.77a.07.07,0,0,1-.07-.08l.15-2.35a.07.07,0,0,1,.08-.07l1.43.09a.07.07,0,0,1,.07.08l0,.25a.07.07,0,0,1-.08.07l-1-.06,0,.66.78,0a.06.06,0,0,1,.07.08l0,.25a.07.07,0,0,1-.08.07l-.78,0,0,.64,1,.06a.06.06,0,0,1,.07.08l0,.25a.07.07,0,0,1-.08.07Z"/><path class="cls-1" d="M27.82,52.88a.06.06,0,0,1-.07-.07l-.07-2.35a.06.06,0,0,1,.07-.07l.66,0a1.16,1.16,0,0,1,1.28,1.25,1.06,1.06,0,0,1-1.1,1.24Zm.75-.42c.38,0,.64-.3.62-.83s-.26-.88-.78-.86h-.23l.05,1.69Z"/><path class="cls-1" d="M30.79,52.63a.06.06,0,0,1-.06.08l-.35,0a.06.06,0,0,1-.08-.06l-.24-2.35a.06.06,0,0,1,.06-.08l.35,0a.06.06,0,0,1,.08.06Z"/><path class="cls-1" d="M31.08,51.43a1.13,1.13,0,1,1,1.33,1A1.12,1.12,0,0,1,31.08,51.43Zm1.69-.31c-.11-.61-.43-.78-.75-.72s-.56.32-.44.94.43.78.75.72S32.89,51.73,32.78,51.12Z"/><path class="cls-1" d="M35.92,50.88l-.84.28v.58s0,.08,0,.1l-.35.12a.06.06,0,0,1-.08-.06l.09-2.42c0-.12,0-.17.12-.2L35,49.2c.1,0,.15,0,.22.09l1.5,1.89a.06.06,0,0,1,0,.1l-.35.12c-.05,0-.08,0-.1-.05Zm-.84-.12.6-.2-.59-.76Z"/><path class="cls-1" d="M36.23,48.87a.06.06,0,0,1,0-.09l.29-.14a.16.16,0,0,1,.19,0l1.24,1h0l0-1.62a.16.16,0,0,1,.1-.17l.27-.12a.06.06,0,0,1,.09,0l1,2.13a.07.07,0,0,1,0,.1l-.31.14a.06.06,0,0,1-.09,0l-.63-1.34,0,1.23a.23.23,0,0,1-.15.22.25.25,0,0,1-.27,0L37,49.46l.63,1.33a.06.06,0,0,1,0,.09l-.32.15a.07.07,0,0,1-.1,0Z"/><path class="cls-1" d="M40.22,49.59a.06.06,0,0,1-.1,0l-1.26-2a.06.06,0,0,1,0-.1l.74-.47c.43-.27.79-.27,1,.13s.05.58-.05.65h0a.59.59,0,0,1,.8.22c.28.44,0,.81-.37,1.06Zm-.08-1.67c.23-.14.23-.3.13-.47s-.28-.2-.53,0l-.28.17.34.54Zm.61.87c.21-.13.32-.3.18-.53s-.35-.2-.57-.07l-.37.23.38.6Z"/><path class="cls-1" d="M42.52,48a.06.06,0,0,1,0,.1l-.28.21a.06.06,0,0,1-.1,0l-1.39-1.9a.06.06,0,0,1,0-.1L41,46a.06.06,0,0,1,.1,0Z"/><path class="cls-1" d="M43.16,47.57a.06.06,0,0,1-.1,0l-1.52-1.81a.06.06,0,0,1,0-.1l1.1-.93a.07.07,0,0,1,.1,0l.16.19a.07.07,0,0,1,0,.11l-.78.65.43.51.6-.5a.06.06,0,0,1,.1,0l.16.19a.07.07,0,0,1,0,.1l-.6.5.41.49.78-.65a.06.06,0,0,1,.1,0l.16.19a.07.07,0,0,1,0,.1Z"/><path class="cls-1" d="M44.27,43.14a.06.06,0,0,1,.1,0l.18.18a.07.07,0,0,1,0,.11L44,44l1.44,1.42a.06.06,0,0,1,0,.1l-.25.25a.06.06,0,0,1-.1,0L43.68,44.3l-.55.56a.07.07,0,0,1-.11,0l-.18-.18a.07.07,0,0,1,0-.1Z"/><path class="cls-1" d="M46.43,44.43a.07.07,0,0,1-.1,0l-1.81-1.5a.06.06,0,0,1,0-.1l.91-1.11a.07.07,0,0,1,.1,0l.2.16a.07.07,0,0,1,0,.11l-.64.78.51.42.5-.6a.06.06,0,0,1,.1,0l.19.16a.07.07,0,0,1,0,.1l-.5.6.5.41.65-.78a.07.07,0,0,1,.1,0l.19.16a.07.07,0,0,1,0,.1Z"/><path class="cls-1" d="M8.15,42.52C1.68,35.8,3.26,26.11,3.28,26l.59.1c0,.09-1.54,9.49,4.72,16Z"/><path class="cls-1" d="M48.73,39.14l-.51-.32c.05-.08,5-8.19,1.71-16.58l.56-.22C53.92,30.7,48.78,39.06,48.73,39.14Z"/></svg>