<svg id="Capa_1" data-name="Capa 1" xmlns="http://www.w3.org/2000/svg" viewBox="0 0 675.53 163.81"><defs><style>.cls-1{fill:#a9bc10;}.cls-1,.cls-2{fill-rule:evenodd;}.cls-2{fill:#f10600;}</style></defs><title>Mesa de trabajo 14</title><path class="cls-1" d="M92.15,10c-3.4,4.35-7.22,7.08-9.88,11.07C71,38.06,74.63,62.63,88.2,76.05c5.21,5.16,12.26,9.17,18.18,14.23,10,8.52,21.59,18.14,21.74,36.76.09,11.84-5.9,22.36-11.46,28.06-2.58,2.64-8.15,8.32-13,8.7-4.4.33-13.23-5.22-18.58-7.9-28.65-14.41-54.95-35.32-71.14-61.26C7,83.63-.74,69,.06,51.15c.71-15.68,8-26.74,17-35.57C33.16-.18,71.78-7.2,92.15,10Z"/><path class="cls-2" d="M160.13,116.37c3.65-34.64-39.86-32.84-41.5-64.43-.95-18.21,13.63-32.12,32.81-34,25.63-2.5,43.66,14.67,44.66,36.76C197.41,83.52,173.89,102.88,160.13,116.37Z"/><path class="cls-2" d="M449.85,35.74c6.72-1.13,11,1.95,12.25,5.53,4.28,12.13-10.41,23.07-20.16,16.2C432.49,50.83,441.52,37.14,449.85,35.74Z"/><path class="cls-2" d="M303.61,59.85c-4.58,4.77-8.92,9.79-13.44,14.62-3.33-2.9-20.88-15.76-27.67-6.72-6.34,8.44,5.31,13.28,11.07,15.81C284,88.14,294.5,93.65,295.7,107.28c3.26,37.07-47.53,43.87-70.35,24.5C228.68,125,232.69,118.84,236,112c4.94,3.13,24.47,15.26,32.41,6.32,1.36-1.53,2.1-4.77,1.58-7.51-1.27-6.72-12.94-8.09-20.55-12.25-6.5-3.56-12.22-9.53-13-19.37C234.61,57.51,247.81,46.28,268,44.83,284.44,43.65,295.42,50.09,303.61,59.85Z"/><path class="cls-2" d="M336.41,66.17c12.45-1.4,23.34,2.36,28.06,10.28,5.19,8.71,4.44,20.24,2.77,29.64-3.75,21.05-17.54,37.83-41.11,36.76-15.4-.7-23.7-10.85-24.5-26.88-.65-13,3.64-26.44,8.3-33.6C315,74.56,322.85,67.7,336.41,66.17Zm-5.53,20.55c-3.86,4.84-6.76,18.57-6.32,28.46.32,7.36,3.59,12.25,10.28,9.49,5.52-2.28,9.21-16.45,9.88-26.48.6-8.93-.9-15.82-7.51-15A9.58,9.58,0,0,0,330.88,86.73Z"/><path class="cls-2" d="M428.9,68.54c-2,6.71-4.5,12.89-6.32,19.76-6.69-3.83-16.52-3-19.76,4-2.48,5.31-2.92,15.37-4.35,24.11-1.54,9.44-3.38,18.53-4,24.11H372c2.88-24.79,9.14-46.19,10.28-72.72H400c.67,2.49.31,6,.4,9.09C403.81,69.7,418.13,61.14,428.9,68.54Z"/><path class="cls-2" d="M530.08,71.31c-2.57,23.65-8.93,43.51-9.49,69.17H501.23v-6.32c-3.91,2.86-8.05,7.47-14.62,8.3-16.28,2.06-24.27-8.46-25.29-21.74-2.1-27.22,12.19-52.84,37.94-54.94C510.87,64.83,519.52,67.32,530.08,71.31Zm-46.24,37.94c-.47,7,.32,14.2,4.35,15.81,11.43,4.58,12.89-9.94,14.23-17.79,1.49-8.76,2.21-15.93,3.56-23.72C490.7,77.6,484.67,96.82,483.84,109.25Z"/><path class="cls-2" d="M592.13,140.48H569.61c2.07-14.58,4.63-28.25,7.11-43.87.93-5.86,1.5-15.83-7.91-11.86-7.87,3.32-7.48,18.57-9.49,30.83-1.5,9.18-3.31,18.33-4.35,24.9H532.45c3.69-24.11,9.27-46.32,10.67-72.72H561.7a27,27,0,0,0,.4,6.72c8.27-10.31,36.08-14,38.74,4.35a44.36,44.36,0,0,1,0,9.09C599.64,104.48,593.15,126.69,592.13,140.48Z"/><path class="cls-2" d="M675.53,71.31c-3.2,23.15-8.87,43.83-9.88,69.17h-19v-6.32c-2.76.71-4.5,4-7.11,5.53-10,5.87-24.19,2-28.85-5.14-2.92-4.49-4-10.48-4.35-15.81-1.71-27.56,14.28-50.88,37.94-53C656.64,64.69,664.87,67.57,675.53,71.31ZM628.89,116c.44,4.7,2.48,8.81,5.53,9.49,12.28,2.73,12.28-13.25,13.83-22.53,1.2-7.15,1.81-13.89,3.16-19.37C634.69,77,627.48,101,628.89,116Z"/><path class="cls-2" d="M458.54,67.75c-4.39,23.94-8,48.69-12.25,72.72H423.76c4.2-24.13,7.81-48.84,12.25-72.72Z"/></svg>